<?xml version="1.0" standalone="no"?>
<!DOCTYPE svg PUBLIC "-//W3C//DTD SVG 20010904//EN"
 "http://www.w3.org/TR/2001/REC-SVG-20010904/DTD/svg10.dtd">
<svg version="1.0" xmlns="http://www.w3.org/2000/svg"
 width="594.000000pt" height="604.000000pt" viewBox="0 0 594.000000 604.000000"
 preserveAspectRatio="xMidYMid meet">

<g transform="translate(0.000000,604.000000) scale(0.100000,-0.100000)"
fill="#000000" stroke="none">
<path d="M0 3020 l0 -3020 2970 0 2970 0 0 3020 0 3020 -2970 0 -2970 0 0
-3020z m3123 2815 c20 1 37 0 37 -4 0 -3 28 -7 63 -9 129 -4 213 -14 192 -23
-15 -6 -10 -8 20 -7 22 1 49 -4 61 -10 11 -6 30 -8 42 -5 12 3 22 1 22 -3 0
-5 18 -9 40 -8 27 0 41 -4 45 -15 5 -13 7 -14 15 -1 6 10 10 11 10 3 0 -7 7
-10 17 -6 9 4 14 2 10 -3 -3 -6 9 -10 28 -11 19 -1 49 -8 67 -18 50 -25 171
-67 191 -67 10 1 15 -4 11 -10 -5 -7 0 -9 14 -6 12 4 20 2 16 -3 -3 -5 1 -9 9
-9 8 0 40 -11 71 -25 32 -14 62 -22 68 -19 7 5 8 2 3 -6 -6 -10 -4 -12 11 -6
10 4 15 4 12 0 -10 -10 121 -76 135 -68 6 4 9 4 5 -1 -8 -9 200 -142 215 -137
4 1 6 -1 3 -6 -3 -5 7 -15 22 -23 33 -17 111 -73 172 -124 105 -87 259 -238
253 -248 -3 -5 -1 -7 4 -4 10 6 94 -82 174 -183 41 -51 129 -177 129 -183 0
-10 -40 -15 -46 -6 -3 5 3 9 13 10 15 0 14 2 -3 9 -12 5 -25 14 -30 21 -5 9
-2 10 9 6 11 -4 14 -2 10 8 -4 11 -10 12 -25 4 -18 -9 -18 -9 -9 10 9 16 9 19
-2 15 -8 -3 -17 2 -21 11 -4 11 -2 14 7 10 6 -4 1 3 -13 15 -18 16 -20 20 -7
16 11 -3 16 -2 12 4 -3 6 -18 10 -33 10 -19 0 -23 3 -13 9 11 7 9 12 -10 22
-13 7 -27 13 -31 14 -3 0 -10 4 -15 9 -4 5 -3 7 2 3 6 -3 17 -2 25 4 13 7 13
9 0 9 -17 0 -70 52 -70 69 0 6 -7 11 -16 11 -14 0 -14 3 -4 15 11 13 8 15 -13
15 -14 0 -29 5 -33 12 -5 7 -3 8 6 3 9 -5 11 -4 6 3 -4 7 -13 12 -20 12 -8 0
-16 10 -19 21 -4 15 -11 20 -22 15 -9 -3 -14 -2 -11 2 5 9 -22 48 -32 45 -4
-2 -7 1 -7 6 0 6 -6 16 -12 22 -7 7 -13 9 -13 5 0 -5 -9 2 -20 15 -17 21 -21
22 -31 9 -9 -13 -10 -12 -5 3 3 9 3 24 0 32 -6 14 -8 14 -18 0 -10 -14 -12
-13 -24 5 -7 11 -8 20 -3 20 5 0 12 -5 14 -10 3 -6 4 -5 3 2 -2 7 -13 13 -24
12 -12 0 -23 5 -26 12 -3 8 1 11 12 8 9 -2 1 3 -18 11 -52 23 -63 30 -68 45
-3 7 0 10 7 6 19 -12 12 0 -11 20 -19 15 -20 16 -9 2 16 -22 -1 -24 -19 -3 -6
8 -22 13 -33 12 -16 -1 -21 3 -19 15 2 12 -2 16 -12 12 -8 -3 -17 0 -22 7 -4
7 -3 10 4 5 6 -3 13 -3 16 2 3 5 0 9 -7 9 -26 1 -43 9 -55 26 -16 21 -34 23
-26 2 4 -8 11 -12 17 -8 6 3 7 1 3 -5 -4 -6 -13 -9 -21 -6 -8 4 -13 10 -10 14
3 5 1 11 -5 15 -6 4 -8 10 -5 15 3 5 -4 11 -15 15 -11 4 -18 11 -15 16 4 5 1
10 -4 10 -6 1 -15 2 -20 3 -6 0 -15 6 -22 13 -9 9 -17 9 -32 2 -14 -8 -18 -8
-13 0 4 6 2 11 -4 11 -6 0 -9 4 -5 9 3 6 -4 8 -15 6 -11 -2 -18 0 -15 5 3 5 1
11 -5 15 -5 3 -10 2 -10 -3 0 -5 -7 -9 -15 -9 -8 0 -12 4 -9 9 3 4 0 8 -6 8
-6 0 -8 5 -5 10 4 6 3 10 -2 9 -4 -1 -12 0 -18 1 -5 1 -17 3 -25 4 -8 0 -15 6
-15 13 0 6 -4 15 -9 20 -5 5 -6 3 -2 -4 4 -8 1 -13 -9 -13 -8 0 -18 7 -21 15
-5 11 -10 12 -26 4 -11 -6 -22 -8 -26 -5 -3 3 0 6 6 6 7 0 12 4 12 10 0 5 -6
7 -14 4 -7 -3 -16 2 -20 11 -3 10 -11 13 -18 8 -35 -21 -54 -10 -50 28 1 6
-19 9 -59 9 -15 0 -32 7 -39 15 -7 8 -16 12 -21 9 -5 -3 -9 1 -9 8 0 8 -5 6
-11 -5 -10 -18 -12 -18 -30 -1 -10 9 -19 14 -19 9 0 -4 -11 0 -25 9 -13 9 -30
16 -37 15 -7 0 -4 -4 7 -9 11 -5 15 -9 8 -9 -20 -2 -43 11 -37 20 3 5 -2 9
-11 9 -10 0 -14 -5 -10 -12 4 -7 -1 -4 -10 7 -11 14 -25 19 -46 16 -19 -1 -29
1 -25 7 5 9 -2 9 -34 2 -3 0 3 -5 13 -11 18 -11 14 -29 -6 -29 -8 0 -8 3 1 9
11 6 10 10 -5 16 -10 5 -22 7 -26 6 -5 -1 -6 3 -2 9 4 6 -9 9 -35 8 -30 -1
-46 4 -61 21 -23 24 -36 20 -49 -15 -6 -14 -17 -24 -27 -23 -17 1 -17 2 -1 6
12 3 16 12 14 26 -3 17 -10 22 -35 21 -17 0 -31 3 -31 8 0 5 -5 6 -10 3 -6 -4
-8 -11 -5 -16 3 -5 -1 -6 -9 -3 -9 3 -14 9 -11 14 2 4 -15 7 -39 7 -24 0 -48
3 -54 7 -5 3 -18 3 -27 0 -13 -5 -14 -8 -3 -15 7 -5 13 -17 14 -27 1 -15 -4
-18 -25 -13 -25 5 -25 6 -3 9 12 2 22 8 22 14 0 5 -7 8 -15 4 -9 -3 -15 0 -15
10 0 11 -6 15 -20 11 -12 -3 -18 -1 -14 5 5 7 -4 9 -24 6 -18 -2 -33 0 -36 6
-2 7 -8 7 -17 -1 -7 -7 -17 -13 -22 -13 -4 0 -5 6 -1 13 5 8 2 8 -9 -2 -9 -7
-17 -10 -17 -5 0 5 -4 3 -9 -5 -11 -17 7 -63 21 -55 5 3 4 12 -3 20 -16 19 -5
28 18 15 12 -7 14 -10 4 -11 -8 0 -11 -3 -8 -7 4 -3 2 -12 -4 -20 -14 -16 -9
-16 26 -3 24 9 26 12 14 28 -13 15 -12 16 4 3 11 -9 14 -17 8 -25 -7 -8 -3
-12 12 -12 12 0 25 5 29 10 5 8 8 8 8 0 0 -6 13 -10 30 -9 16 1 27 -1 25 -5
-2 -4 27 -6 66 -5 38 1 72 -2 75 -7 5 -7 -28 -13 -51 -8 -29 6 -107 5 -111 -2
-3 -4 -11 -8 -17 -8 -8 0 -7 4 2 9 10 6 0 9 -32 9 -25 0 -51 3 -56 6 -5 3 -11
1 -13 -6 -5 -14 -45 -21 -53 -8 -4 6 1 7 11 3 12 -4 15 -2 12 8 -3 8 -11 13
-17 11 -7 -1 -10 2 -6 8 10 16 -14 50 -30 44 -8 -4 -12 -10 -9 -15 3 -5 -2 -6
-11 -2 -12 4 -13 8 -4 13 8 6 5 11 -10 19 -21 12 -26 7 -22 -25 2 -14 -47 -25
-55 -12 -3 5 0 17 7 26 11 14 11 15 -1 5 -8 -7 -23 -13 -33 -13 -17 0 -17 2 4
21 13 11 17 17 9 12 -8 -4 -26 -8 -40 -9 -14 0 -45 -4 -70 -9 -25 -5 -54 -10
-65 -11 -11 -1 -26 -2 -33 -3 -7 0 -10 -5 -7 -11 3 -5 -1 -10 -10 -10 -9 0
-13 5 -9 11 5 8 1 8 -14 0 -11 -6 -23 -16 -26 -23 -3 -7 -4 -2 -1 12 3 14 2
19 -1 13 -3 -7 -12 -13 -19 -13 -8 0 -17 -5 -21 -12 -5 -8 -1 -9 12 -4 14 5
16 4 7 -5 -12 -12 -37 -3 -28 11 9 15 -24 19 -38 5 -8 -8 -24 -11 -36 -8 -13
3 -21 1 -21 -7 0 -7 -7 -10 -16 -6 -19 7 -84 -14 -84 -27 0 -4 4 -6 8 -3 4 2
19 -4 32 -14 24 -19 24 -19 3 -13 -13 3 -23 10 -23 15 0 5 -5 6 -10 3 -6 -3
-13 1 -16 10 -4 10 -10 12 -18 7 -6 -5 -19 -8 -28 -7 -24 4 -23 -12 1 -25 14
-7 21 -6 24 3 3 7 6 5 6 -5 1 -22 -8 -23 -38 -1 -19 13 -28 14 -42 4 -11 -6
-19 -7 -19 -2 0 4 -20 2 -45 -7 -25 -8 -45 -19 -45 -24 0 -5 5 -6 12 -2 7 5 8
3 4 -5 -6 -9 -13 -8 -27 5 -18 16 -19 16 -19 -9 0 -15 5 -27 11 -27 5 0 7 6 3
13 -5 8 -2 7 10 -2 13 -11 20 -11 28 -3 17 17 24 15 24 -7 0 -15 -3 -17 -13
-9 -12 10 -17 5 -14 -17 1 -5 -5 -2 -12 7 -17 22 -27 14 -21 -18 2 -13 1 -24
-3 -24 -15 1 -58 29 -45 30 9 0 11 7 7 23 -7 22 -7 22 9 2 8 -11 15 -15 16
-10 0 23 -18 35 -46 31 -42 -5 -65 -17 -58 -28 4 -6 1 -8 -7 -6 -8 3 -26 -1
-40 -8 -15 -7 -30 -10 -34 -6 -5 4 -5 1 -1 -6 4 -7 12 -9 18 -6 7 4 8 2 4 -5
-4 -6 -12 -8 -18 -5 -6 4 -17 -1 -25 -11 -12 -17 -13 -18 -13 -1 0 10 -5 14
-11 11 -6 -4 -8 -13 -5 -21 3 -8 2 -14 -2 -15 -4 0 -17 -2 -29 -3 -11 -1 -20
2 -19 8 2 6 1 8 -1 4 -3 -4 -20 -15 -39 -24 -18 -9 -31 -20 -28 -25 3 -5 -2
-6 -10 -3 -15 6 -20 -4 -17 -31 0 -5 -4 -3 -11 6 -10 14 -15 14 -49 -5 -39
-21 -52 -46 -24 -46 9 0 18 -7 22 -16 5 -13 7 -13 14 -2 6 9 9 9 9 1 0 -19
-20 -26 -26 -9 -3 9 -10 16 -16 16 -5 0 -6 -6 -3 -12 4 -7 0 -5 -9 6 -9 11
-20 15 -28 10 -11 -6 -11 -5 0 8 9 11 10 18 2 23 -6 4 -9 2 -8 -4 2 -5 -6 -17
-17 -26 -11 -9 -15 -14 -8 -11 6 4 14 2 18 -3 3 -6 -4 -8 -16 -6 -26 5 -52
-12 -42 -28 3 -5 1 -7 -5 -3 -6 3 -18 -1 -26 -10 -9 -8 -16 -13 -16 -9 0 3 -9
1 -20 -5 -11 -6 -18 -15 -15 -20 3 -5 -7 -8 -22 -7 -21 2 -28 -3 -32 -21 -4
-13 -9 -23 -13 -23 -29 3 -38 -1 -38 -15 0 -8 -5 -12 -10 -9 -5 3 -10 1 -10
-5 0 -6 -5 -8 -12 -4 -7 4 -8 3 -4 -4 4 -7 3 -12 -3 -12 -6 0 -8 -8 -5 -17 5
-15 4 -16 -5 -3 -10 14 -16 7 -11 -15 1 -5 -4 -4 -11 3 -17 16 -30 16 -23 -1
3 -8 -9 -20 -28 -30 -18 -10 -23 -15 -11 -12 12 3 25 0 29 -6 5 -8 3 -9 -6 -4
-8 5 -18 1 -26 -10 -8 -11 -21 -16 -33 -12 -14 3 -18 1 -14 -10 4 -9 -2 -16
-16 -20 -11 -3 -21 -12 -21 -19 0 -8 -9 -18 -19 -22 -19 -7 -21 -10 -21 -33 0
-5 -5 -7 -12 -3 -8 5 -9 2 -5 -9 3 -10 2 -17 -3 -17 -6 0 -10 5 -10 10 0 6 -6
5 -14 -2 -8 -7 -12 -16 -9 -20 2 -5 -3 -8 -12 -8 -11 0 -15 -5 -12 -14 4 -11
1 -13 -10 -9 -11 4 -14 2 -9 -5 4 -8 0 -12 -11 -13 -16 0 -16 -1 1 -8 18 -7
18 -8 2 -14 -10 -4 -23 -4 -28 0 -7 4 -8 1 -2 -8 11 -18 14 -70 3 -63 -4 2 -6
11 -2 19 17 45 -60 -18 -98 -80 -11 -16 -19 -25 -20 -20 0 6 -4 1 -8 -10 -5
-11 -4 -25 1 -32 15 -18 2 -16 -16 3 -15 14 -16 13 -16 -10 0 -14 -3 -26 -7
-26 -5 0 -19 -18 -32 -40 -14 -21 -29 -36 -34 -33 -7 4 -8 -1 -3 -12 4 -12 0
-25 -13 -39 -19 -20 -21 -24 -21 -47 0 -5 -4 -7 -10 -4 -9 6 -15 -8 -11 -29 1
-5 -4 -4 -12 2 -11 9 -14 8 -14 -3 0 -8 5 -15 11 -15 6 0 5 -4 -2 -9 -7 -4
-14 -18 -15 -30 -1 -21 -2 -21 -15 -4 -12 16 -13 15 -7 -10 6 -22 4 -26 -8
-21 -12 4 -14 1 -10 -15 4 -15 1 -21 -11 -21 -9 0 -16 -2 -16 -4 0 -2 -3 -11
-6 -20 -3 -9 -1 -16 6 -16 6 0 8 5 4 12 -5 7 -3 8 6 3 10 -6 10 -11 -3 -20
-10 -7 -17 -21 -17 -31 0 -16 -2 -17 -10 -4 -8 13 -10 12 -10 -2 0 -10 1 -20
3 -23 1 -2 -7 -11 -18 -19 -15 -12 -16 -16 -5 -16 12 -1 11 -3 -3 -14 -12 -9
-14 -15 -6 -18 9 -3 9 -9 0 -26 -7 -13 -17 -20 -23 -16 -7 5 -9 1 -5 -9 4 -10
2 -17 -4 -17 -6 0 -8 -7 -5 -15 3 -9 -1 -18 -9 -21 -8 -3 -11 -12 -8 -21 4
-11 2 -14 -5 -9 -8 4 -10 2 -6 -7 3 -8 -4 -32 -15 -53 -12 -21 -21 -47 -21
-57 0 -10 -4 -16 -9 -13 -4 3 -7 -6 -5 -19 1 -15 -4 -29 -14 -35 -10 -5 -12
-10 -5 -10 9 0 11 -19 3 -40 -1 -3 -2 -9 -1 -13 1 -5 -3 -6 -9 -2 -5 3 -10 2
-10 -4 0 -5 5 -13 11 -17 8 -5 6 -10 -7 -18 -11 -6 -20 -17 -22 -25 -3 -12 -1
-12 14 0 16 13 16 12 5 -9 -7 -13 -10 -30 -7 -38 4 -10 2 -12 -6 -8 -8 5 -9 2
-4 -11 6 -16 4 -16 -10 -4 -16 13 -16 12 -6 -7 6 -12 7 -26 2 -34 -5 -8 -6
-18 -3 -24 3 -5 1 -6 -5 -2 -19 11 -14 -5 5 -20 17 -12 17 -12 -2 -11 -12 1
-20 -5 -22 -18 l-3 -20 9 20 c5 11 10 14 10 7 1 -7 -4 -23 -11 -35 -11 -20
-14 -76 -6 -104 1 -6 -6 -19 -17 -28 -11 -9 -15 -14 -9 -11 7 3 14 -1 17 -9 4
-10 1 -12 -11 -8 -15 6 -16 5 -2 -12 10 -13 11 -16 2 -11 -10 6 -12 1 -9 -20
3 -16 8 -36 11 -45 4 -9 0 -21 -9 -29 -10 -8 -15 -9 -15 -1 0 6 5 11 10 11 6
0 10 5 10 11 0 5 -5 7 -10 4 -7 -4 -10 16 -9 60 1 48 6 68 18 75 12 7 12 9 2
10 -17 0 -10 76 25 250 31 157 33 162 47 154 9 -5 9 -4 0 6 -8 8 -8 21 -1 44
5 17 18 61 28 97 18 61 85 235 131 336 10 23 19 44 19 47 0 3 23 48 52 98 28
51 51 98 51 105 0 7 4 10 8 7 5 -3 11 6 15 20 3 14 12 30 20 37 8 6 11 15 8
20 -3 5 -1 9 4 9 7 0 24 27 31 52 1 4 18 23 37 43 19 20 34 42 34 49 0 7 15
27 33 46 17 18 25 30 17 25 -8 -5 2 8 22 27 20 20 34 38 31 42 -4 3 2 6 11 6
12 0 16 5 12 16 -3 8 -2 12 4 9 6 -3 10 -2 10 2 0 14 84 103 97 103 7 0 10 7
7 15 -4 8 1 17 10 21 9 3 13 10 10 15 -3 5 -1 9 5 9 5 0 12 -6 14 -12 4 -8 6
-7 6 3 1 21 65 92 74 82 4 -3 7 1 7 9 0 14 10 23 32 27 4 1 24 17 43 37 20 20
40 32 47 28 6 -4 8 -3 5 3 -7 11 38 55 47 46 3 -4 6 -1 6 6 0 7 5 9 10 6 6 -3
10 1 10 9 0 14 12 20 33 17 4 0 6 2 5 6 -2 5 0 8 4 8 4 0 15 10 23 22 9 12 21
20 28 18 6 -3 29 10 49 29 21 19 48 38 60 41 13 4 34 17 48 30 28 24 143 88
134 74 -10 -16 5 -9 24 12 11 11 30 22 43 24 40 6 69 17 64 24 -2 4 1 8 8 8 7
0 41 14 77 30 61 29 95 44 113 48 4 2 9 4 12 5 3 1 8 3 13 4 4 1 21 6 37 13
65 24 135 43 164 43 17 0 31 4 31 9 0 8 103 31 165 37 11 1 27 4 35 8 44 18
272 41 413 41 98 0 157 4 157 10 0 6 3 6 8 -1 4 -6 24 -10 45 -9z m-18 -87
c19 2 19 2 1 -9 -14 -9 -21 -8 -35 6 -12 14 -12 16 -1 9 8 -5 24 -7 35 -6z
m-301 -12 c-3 -9 2 -16 13 -19 11 -2 9 -3 -4 -2 -13 1 -23 -2 -23 -6 0 -5 6
-9 13 -9 8 0 7 -4 -3 -10 -13 -9 -7 -14 13 -11 4 0 7 -3 7 -9 0 -5 7 -10 15
-10 8 0 15 5 15 10 0 6 11 16 25 22 20 9 28 9 38 -1 9 -10 8 -11 -5 -6 -9 4
-25 1 -35 -5 -16 -10 -16 -11 3 -7 12 3 28 0 35 -5 12 -7 11 -9 -1 -7 -35 3
-61 -2 -55 -11 6 -10 -41 5 -60 19 -18 14 -45 21 -45 11 0 -6 8 -11 18 -11 16
-1 16 -2 -1 -6 -14 -4 -15 -8 -7 -18 7 -8 7 -15 1 -19 -5 -3 -14 8 -20 26 -13
36 0 52 34 41 17 -5 18 -4 6 11 -11 13 -11 16 -1 16 8 0 10 3 7 6 -4 4 -14 1
-22 -6 -13 -11 -16 -11 -13 1 2 8 14 17 28 20 14 4 26 7 27 8 1 0 0 -5 -3 -13z
m-64 -6 c0 -5 -5 -10 -11 -10 -5 0 -7 5 -4 10 3 6 8 10 11 10 2 0 4 -4 4 -10z
m496 -5 c-3 -8 2 -19 12 -24 9 -6 13 -10 7 -11 -18 0 -32 15 -32 33 0 9 5 17
10 17 5 0 7 -7 3 -15z m64 -4 c0 -11 6 -22 13 -24 9 -4 9 -6 -1 -6 -7 -1 -17
9 -22 22 -5 12 -9 17 -9 10 -1 -7 -8 -10 -18 -6 -15 6 -15 7 3 14 30 12 34 10
34 -10z m-595 0 c3 -5 2 -12 -3 -15 -5 -3 -9 1 -9 9 0 17 3 19 12 6z m448 -6
c-3 -9 -8 -14 -10 -11 -3 3 -2 9 2 15 9 16 15 13 8 -4z m214 0 c-4 -8 -2 -17
4 -20 12 -8 2 -25 -15 -25 -14 0 -15 27 -2 48 10 17 19 15 13 -3z m-390 -17
c-3 -8 -6 -5 -6 6 -1 11 2 17 5 13 3 -3 4 -12 1 -19z m-256 -7 c-22 -19 -21
-48 1 -35 7 5 8 2 4 -5 -6 -9 -13 -8 -27 5 -18 16 -18 17 4 35 30 25 46 24 18
0z m749 9 c0 -5 -7 -7 -15 -4 -8 4 -15 8 -15 10 0 2 7 4 15 4 8 0 15 -4 15
-10z m-623 -6 c-3 -3 -12 -4 -19 -1 -8 3 -5 6 6 6 11 1 17 -2 13 -5z m-377
-28 c0 -2 -6 -4 -12 -3 -36 1 -58 -4 -58 -14 0 -5 6 -7 13 -3 9 5 9 4 0 -6 -7
-8 -9 -18 -4 -24 15 -19 23 -56 12 -56 -6 0 -11 11 -11 23 0 13 -3 27 -7 31
-5 4 -9 12 -9 17 -1 5 -2 10 -4 12 -1 1 -3 9 -5 18 -2 12 4 14 28 11 22 -4 28
-1 22 8 -6 9 -3 9 14 1 11 -7 21 -13 21 -15z m175 -12 c-10 -20 -15 -23 -15
-11 0 16 21 49 28 42 1 -1 -4 -15 -13 -31z m-40 5 c3 5 0 12 -5 14 -6 3 -5 4
2 3 21 -4 20 -24 -3 -36 -13 -8 -19 -8 -15 -1 8 12 -24 30 -44 24 -13 -4 -13
-3 0 6 11 7 21 6 37 -4 12 -8 24 -11 28 -6z m375 9 c0 -5 -4 -7 -9 -3 -5 3
-12 1 -16 -5 -9 -15 -25 -12 -25 4 0 8 10 14 25 14 14 0 25 -5 25 -10z m500
-21 c0 -4 -6 -2 -14 5 -8 7 -12 17 -9 22 5 8 23 -12 23 -27z m-966 -6 c-2 -2
3 -9 11 -15 11 -8 12 -15 4 -26 -9 -13 -10 -12 -5 3 5 16 -3 21 -21 15 -5 -2
-6 -7 -5 -13 2 -5 0 -6 -4 -2 -11 11 -14 37 -3 37 4 0 5 8 2 17 -6 15 -5 16 9
3 9 -8 14 -17 12 -19z m1051 19 c-3 -5 -12 -10 -18 -10 -7 0 -6 4 3 10 19 12
23 12 15 0z m-879 -24 c2 -14 -20 -16 -33 -2 -4 4 -1 6 7 4 9 -2 14 3 12 12
-2 8 0 11 4 7 4 -4 9 -14 10 -21z m714 8 c0 -2 -7 -4 -15 -4 -8 0 -15 4 -15
10 0 5 7 7 15 4 8 -4 15 -8 15 -10z m-840 -8 c-7 -7 -13 -7 -20 0 -6 6 -3 10
10 10 13 0 16 -4 10 -10z m366 3 c3 -5 -2 -6 -10 -3 -9 3 -16 2 -16 -3 0 -5
-6 -10 -13 -10 -8 0 -14 6 -14 12 0 14 45 17 53 4z m-471 -17 c-3 -3 -11 0
-18 7 -9 10 -8 11 6 5 10 -3 15 -9 12 -12z m390 0 c-3 -3 -11 0 -18 7 -9 10
-8 11 6 5 10 -3 15 -9 12 -12z m949 10 c3 -5 -1 -9 -9 -9 -8 0 -12 4 -9 9 3 4
7 8 9 8 2 0 6 -4 9 -8z m-1564 -11 c0 -5 -11 -16 -24 -24 -22 -15 -24 -15 -19
3 3 11 11 16 19 13 8 -3 14 0 14 6 0 6 2 11 5 11 3 0 5 -4 5 -9z m1309 -18 c2
-2 -3 -3 -11 -3 -9 0 -19 7 -22 16 -6 15 -4 15 11 3 10 -7 20 -15 22 -16z m25
11 c3 -8 2 -12 -4 -9 -6 3 -10 10 -10 16 0 14 7 11 14 -7z m266 12 c0 -2 -8
-10 -17 -17 -16 -13 -17 -12 -4 4 13 16 21 21 21 13z m-143 -21 c-6 -7 -13 -9
-15 -5 -2 5 -11 6 -20 3 -12 -3 -13 -2 -5 4 7 5 21 9 32 10 17 1 18 -1 8 -12z
m66 -2 c-3 -7 -6 -13 -8 -13 -2 0 -5 6 -8 13 -3 8 1 14 8 14 7 0 11 -6 8 -14z
m148 -6 c-8 -8 -14 -7 -23 2 -11 10 -9 11 6 5 15 -6 17 -4 11 6 -6 9 -4 11 4
5 9 -5 10 -10 2 -18z m-1504 -32 c0 -15 -11 -11 -13 6 -1 5 -2 11 -3 14 0 3
-9 1 -19 -4 -14 -7 -19 -6 -19 4 0 7 7 11 15 7 11 -4 13 -1 7 9 -5 8 -1 7 12
-4 11 -9 20 -24 20 -32z m54 22 c-10 -9 -11 -8 -5 6 3 10 9 15 12 12 3 -3 0
-11 -7 -18z m-161 5 c0 -5 -7 -9 -15 -9 -8 0 -12 4 -9 9 3 4 9 8 15 8 5 0 9
-4 9 -8z m-47 -19 c-6 -2 -9 -12 -6 -22 6 -23 -13 -37 -21 -15 -3 8 -2 12 4 9
13 -8 13 1 0 25 -8 15 -7 17 12 12 13 -3 17 -7 11 -9z m1317 7 c0 -5 -2 -10
-4 -10 -3 0 -8 5 -11 10 -3 6 -1 10 4 10 6 0 11 -4 11 -10z m301 -3 c-6 -8 -8
-16 -5 -19 3 -3 1 -9 -4 -12 -6 -3 -9 0 -8 6 2 16 15 38 23 38 3 0 0 -6 -6
-13z m53 -8 c3 -3 -5 -5 -19 -5 -13 0 -22 3 -19 7 4 8 30 6 38 -2z m86 1 c0
-5 -9 -10 -20 -10 -11 0 -20 5 -20 10 0 6 9 10 20 10 11 0 20 -4 20 -10z
m-1805 -18 c-3 -3 -11 0 -18 7 -9 10 -8 11 6 5 10 -3 15 -9 12 -12z m70 9 c-3
-5 3 -12 12 -14 14 -4 13 -5 -4 -6 -23 -1 -30 9 -16 22 9 10 15 8 8 -2z m1370
-1 c3 -5 1 -10 -4 -10 -6 0 -11 5 -11 10 0 6 2 10 4 10 3 0 8 -4 11 -10z m76
1 c-7 -5 -11 -13 -7 -19 4 -6 -2 -8 -15 -5 -21 6 -21 7 -4 20 11 7 24 13 29
13 6 0 5 -4 -3 -9z m-1681 -27 c0 -2 -9 0 -20 6 -11 6 -20 13 -20 16 0 2 9 0
20 -6 11 -6 20 -13 20 -16z m306 4 c-9 -5 -22 -7 -29 -4 -7 2 -4 5 6 5 9 1 17
6 17 12 0 5 5 7 11 3 8 -5 6 -10 -5 -16z m1427 -3 c-3 -9 -8 -14 -10 -11 -3 3
-2 9 2 15 9 16 15 13 8 -4z m152 -12 c-9 -16 -11 -31 -5 -38 6 -7 3 -11 -10
-11 -10 0 -18 5 -17 10 1 6 -3 10 -10 11 -21 0 -24 12 -3 18 11 3 18 1 14 -4
-3 -5 0 -9 7 -9 6 0 9 8 6 20 -3 11 -1 18 3 15 5 -3 11 -1 15 5 13 21 13 9 0
-17z m-1911 -1 c3 -5 -1 -9 -9 -9 -8 0 -15 4 -15 9 0 4 4 8 9 8 6 0 12 -4 15
-8z m199 -5 c7 3 10 4 7 0 -3 -3 -7 -5 -10 -4 -3 1 -18 -6 -32 -15 -17 -11
-29 -14 -33 -8 -3 6 0 10 8 10 8 0 21 7 28 16 8 10 15 12 17 5 2 -6 9 -8 15
-4z m1752 -5 c-3 -3 -11 0 -18 7 -9 10 -8 11 6 5 10 -3 15 -9 12 -12z m-115
-14 c0 -7 -5 -6 -13 1 -8 6 -18 7 -22 3 -5 -4 -5 -2 -1 5 8 14 36 6 36 -9z
m175 12 c3 -6 -1 -7 -9 -4 -18 7 -21 14 -7 14 6 0 13 -4 16 -10z m-2115 -32
c0 -20 46 -38 61 -24 9 8 9 6 0 -7 -8 -9 -16 -15 -19 -12 -3 3 -12 -1 -21 -8
-14 -11 -14 -10 -2 6 8 10 9 17 3 17 -6 0 -19 -13 -28 -29 -11 -19 -23 -27
-32 -23 -10 3 -13 1 -8 -6 4 -7 4 -13 -1 -13 -35 -6 -52 -5 -47 2 2 4 11 6 18
3 7 -3 16 2 19 10 4 9 14 16 23 16 14 0 15 2 3 18 -13 15 -12 16 2 4 14 -10
18 -10 23 3 3 9 1 25 -4 36 -7 13 -7 19 0 19 5 0 10 -6 10 -12z m127 6 c-3 -3
-12 -4 -19 -1 -8 3 -5 6 6 6 11 1 17 -2 13 -5z m2143 -22 c-7 -3 -19 3 -28 13
-16 15 -15 16 12 4 15 -7 23 -15 16 -17z m45 19 c-3 -2 0 -12 5 -22 7 -12 7
-20 0 -24 -6 -4 -7 -11 -4 -17 4 -7 2 -8 -5 -4 -8 5 -9 12 -2 20 12 14 4 29
-24 43 -17 10 -17 11 7 10 15 -1 25 -4 23 -6z m-2225 -11 c0 -5 -2 -10 -4 -10
-3 0 -8 5 -11 10 -3 6 -1 10 4 10 6 0 11 -4 11 -10z m80 -10 c0 -5 -5 -12 -12
-16 -7 -4 -8 -3 -4 4 4 7 2 12 -3 12 -6 0 -11 4 -11 10 0 5 7 7 15 4 8 -4 15
-10 15 -14z m35 10 c3 -5 1 -10 -4 -10 -6 0 -11 5 -11 10 0 6 2 10 4 10 3 0 8
-4 11 -10z m-225 -10 c0 -5 -5 -10 -11 -10 -5 0 -7 5 -4 10 3 6 8 10 11 10 2
0 4 -4 4 -10z m2201 -17 c13 -16 12 -17 -3 -4 -10 7 -18 15 -18 17 0 8 8 3 21
-13z m-2294 -7 c0 -8 -8 -11 -20 -8 -11 3 -18 1 -14 -4 3 -6 2 -16 -4 -24 -7
-12 -9 -10 -9 8 0 14 8 26 23 32 12 5 22 9 23 9 0 1 1 -5 1 -13z m48 -4 c-3
-3 -11 0 -18 7 -9 10 -8 11 6 5 10 -3 15 -9 12 -12z m138 -7 c-3 -9 -8 -14
-10 -11 -3 3 -2 9 2 15 9 16 15 13 8 -4z m1252 -31 c121 -25 289 -89 307 -117
4 -7 8 -7 8 -2 0 7 3 7 8 0 4 -6 32 -26 62 -46 80 -52 163 -131 234 -223 104
-135 156 -242 196 -402 21 -84 22 -110 21 -443 -1 -195 -4 -357 -6 -360 -3 -2
-6 142 -7 320 -1 178 -2 340 -4 359 -6 92 -92 329 -115 314 -5 -3 -6 1 -3 9 6
15 -32 87 -53 100 -7 4 -22 26 -33 48 -11 21 -23 39 -26 39 -2 0 0 -8 5 -18
12 -22 3 -36 -24 -40 -18 -2 -19 -2 -2 8 9 6 15 16 12 21 -4 5 -10 7 -15 4
-11 -7 -23 31 -15 45 4 6 11 7 17 4 7 -4 8 -2 4 5 -6 9 -11 9 -22 0 -11 -9
-14 -9 -14 0 0 7 -5 9 -12 5 -8 -5 -9 -2 -5 10 4 9 3 14 -2 11 -5 -3 -12 -1
-16 4 -3 6 -14 2 -26 -10 -11 -11 -17 -24 -14 -29 11 -17 -5 -31 -19 -17 -8 7
-10 15 -5 18 6 3 6 16 -1 33 -5 15 -14 24 -20 21 -5 -3 -10 -1 -10 4 0 6 5 11
11 11 17 0 36 -24 31 -40 -4 -11 -2 -11 11 2 10 9 17 23 17 30 0 10 -2 10 -8
0 -7 -9 -13 -8 -26 7 -15 16 -22 18 -42 9 -13 -6 -24 -14 -24 -18 0 -3 -7 -15
-15 -26 -14 -18 -14 -18 -8 3 4 19 2 22 -16 18 -12 -2 -19 0 -16 5 3 5 -6 12
-20 16 -14 4 -24 12 -22 18 2 6 7 22 11 36 6 25 6 25 -5 3 -7 -13 -16 -23 -21
-23 -5 0 -7 -4 -3 -9 3 -5 1 -12 -4 -16 -10 -6 -7 27 4 45 3 6 1 10 -4 10 -6
0 -11 -4 -11 -10 0 -5 -8 -2 -18 8 -14 14 -15 19 -5 30 21 21 15 27 -7 7 -21
-19 -27 -45 -10 -45 17 0 11 -19 -9 -30 -18 -9 -19 -7 -15 16 4 21 1 25 -10
21 -12 -5 -14 0 -9 23 4 20 1 30 -6 30 -7 0 -20 7 -28 16 -15 15 -18 14 -30
-10 -16 -30 -19 -31 -27 -10 -3 8 -2 13 2 10 4 -2 8 4 9 14 1 10 -5 21 -12 24
-9 3 -12 0 -8 -10 3 -7 1 -14 -5 -14 -6 0 -13 6 -15 13 -4 7 -6 6 -6 -5 -1 -9
2 -18 7 -21 4 -2 1 -2 -5 -1 -12 3 -17 -9 -14 -29 1 -5 -3 -6 -9 -2 -6 3 -8
10 -5 15 3 5 -2 21 -11 35 -13 21 -23 25 -41 20 -14 -3 -22 -2 -20 2 6 10 -40
10 -50 0 -3 -4 3 -7 15 -7 12 0 26 -9 32 -20 6 -11 22 -23 35 -26 39 -10 30
-30 -22 -49 -48 -19 -73 -20 -168 -12 -27 2 -64 1 -82 -3 -27 -7 -36 -3 -62
22 -17 17 -31 34 -31 39 0 13 23 23 50 23 22 -1 23 -1 2 3 -12 2 -20 8 -17 13
3 4 -3 14 -13 21 -15 13 -16 12 -3 -3 7 -10 11 -19 7 -19 -3 -1 -10 -3 -16 -4
-5 -1 -15 -3 -21 -4 -5 0 -8 -4 -6 -8 3 -5 -1 -14 -9 -20 -7 -7 -15 -9 -19 -4
-3 5 0 11 6 13 6 2 0 12 -13 23 -13 11 -18 14 -11 6 7 -8 8 -23 3 -41 -5 -18
-4 -33 3 -41 10 -10 9 -10 -5 0 -10 7 -15 17 -12 22 3 5 0 9 -5 9 -6 0 -11 5
-11 11 0 5 6 7 13 3 7 -5 7 -1 -3 12 -22 29 -24 30 -17 12 3 -10 2 -20 -3 -23
-6 -4 -6 -14 1 -26 10 -20 10 -20 -15 -4 -30 20 -36 21 -47 3 -7 -11 -12 -11
-31 0 l-23 13 21 -18 c24 -21 28 -54 6 -46 -11 5 -11 7 -1 14 11 6 10 9 -1 13
-38 12 -59 13 -71 4 -11 -8 -10 -9 4 -4 9 3 17 1 17 -4 0 -10 -21 -14 -47 -11
-16 2 -16 -9 -2 -29 9 -12 10 -11 5 5 -6 19 -5 19 8 2 8 -10 17 -18 20 -17 4
1 12 -1 19 -3 6 -3 2 -6 -11 -6 -13 -1 -20 -5 -17 -11 3 -5 1 -18 -4 -27 -9
-15 -10 -12 -7 13 3 27 0 31 -21 28 -18 -2 -22 1 -14 10 14 17 1 29 -16 15
-11 -10 -9 -18 8 -48 21 -36 21 -36 0 -11 -11 14 -21 28 -21 31 0 4 -7 9 -14
12 -10 4 -13 1 -9 -9 3 -8 -1 -14 -11 -14 -9 0 -16 -5 -16 -11 0 -6 7 -9 14
-6 11 4 13 1 9 -11 -5 -14 -3 -15 8 -4 18 17 29 15 29 -5 0 -14 -2 -15 -9 -5
-6 10 -12 7 -24 -12 -21 -32 -21 -36 1 -53 9 -7 1 -6 -20 4 -21 10 -38 22 -38
27 0 5 3 6 6 3 8 -8 44 11 44 23 0 5 -8 7 -17 4 -14 -5 -15 -4 -4 4 10 7 6 9
-15 9 -16 0 -23 -2 -16 -4 6 -3 12 -9 12 -14 0 -6 -4 -7 -10 -4 -5 3 -19 8
-29 10 -18 3 -19 2 -4 -33 8 -20 19 -42 24 -48 6 -8 2 -14 -13 -18 -14 -3 -27
0 -33 8 -5 7 -16 11 -23 8 -10 -3 -8 -8 5 -19 14 -11 14 -14 2 -10 -29 9 -61
-76 -35 -94 5 -4 -6 -6 -23 -5 -17 0 -31 5 -31 9 0 5 7 7 15 3 12 -4 15 3 15
30 0 22 6 37 15 40 8 4 15 10 15 16 0 5 -4 6 -10 3 -5 -3 -10 -2 -10 3 0 6 7
12 15 16 19 7 20 33 1 33 -8 0 -12 -6 -9 -13 2 -6 0 -15 -6 -19 -6 -3 -11 -15
-11 -27 0 -18 -2 -19 -17 -7 -15 11 -16 11 -5 -1 6 -8 12 -22 12 -32 0 -10 -6
-17 -12 -15 -8 1 -13 -10 -13 -30 0 -17 -3 -29 -8 -26 -12 7 -20 -26 -9 -40 7
-8 7 -18 2 -27 -9 -14 -12 -7 -9 17 0 3 -6 10 -15 15 -9 5 -16 14 -16 21 0 7
4 6 10 -3 6 -9 10 -10 10 -3 0 21 -16 22 -33 2 -14 -16 -14 -19 -2 -19 8 0 15
-5 15 -11 0 -5 -5 -7 -12 -3 -7 5 -9 2 -5 -9 4 -11 -2 -19 -21 -26 -15 -5 -20
-10 -11 -10 18 -1 48 -31 31 -31 -6 0 -13 6 -15 13 -4 9 -6 9 -6 -1 -1 -7 6
-15 14 -18 8 -4 12 -10 9 -16 -3 -5 -11 -4 -20 3 -8 6 -14 8 -14 4 0 -4 -8 -1
-17 6 -15 12 -16 12 -10 -5 6 -14 4 -17 -8 -12 -9 3 -14 2 -10 -3 3 -5 -1 -11
-7 -14 -7 -2 -1 -4 14 -4 15 0 25 3 22 8 -3 5 -1 9 4 9 6 0 12 -7 16 -15 5
-14 -12 -21 -38 -16 -5 1 -3 -6 5 -15 12 -16 12 -17 -3 -11 -24 9 -12 -20 14
-34 11 -6 17 -13 14 -16 -3 -3 -11 -1 -18 4 -7 6 -26 13 -43 17 -21 5 -26 4
-15 -3 8 -6 11 -13 7 -17 -4 -4 -2 -13 4 -20 8 -9 5 -15 -9 -23 -11 -6 -22 -7
-26 -4 -3 3 -6 1 -6 -5 0 -13 27 -12 48 2 24 15 36 -10 18 -35 -9 -13 -16 -20
-16 -15 0 5 -11 1 -24 -7 -13 -9 -33 -13 -45 -10 -16 4 -20 2 -15 -10 4 -12
11 -14 30 -7 15 6 24 6 24 0 0 -6 4 -10 10 -10 5 0 7 8 4 18 -5 14 -3 14 10
-2 14 -18 20 -15 17 6 0 4 7 4 17 1 14 -6 15 -4 5 8 -10 13 -10 16 2 16 8 0
12 -4 10 -8 -3 -4 6 -10 20 -13 14 -4 25 -14 26 -24 0 -9 1 -99 2 -199 2 -154
0 -184 -13 -189 -8 -4 -19 -6 -24 -5 -5 1 -4 -5 3 -13 20 -24 -24 -8 -46 17
-10 11 -13 17 -7 14 8 -4 14 6 18 29 8 42 -1 77 -17 68 -9 -5 -9 -4 0 6 6 7 9
19 6 28 -5 11 -2 13 8 7 11 -6 12 -5 2 6 -15 16 -17 33 -3 24 6 -3 10 -2 10 4
0 5 -4 13 -10 16 -5 3 -10 11 -10 16 0 6 5 7 10 4 6 -4 10 10 10 36 0 38 -2
40 -17 28 -15 -11 -16 -11 -5 1 6 8 12 33 12 56 0 35 -3 42 -17 39 -10 -2 -20
-4 -23 -4 -3 -1 2 -6 10 -11 8 -5 10 -10 4 -10 -6 0 -17 6 -24 14 -15 19 -40
9 -35 -14 2 -10 -4 -21 -12 -24 -20 -8 -9 -19 23 -24 16 -2 23 1 19 8 -3 5 -2
10 4 10 5 0 9 -9 8 -19 0 -10 -6 -17 -13 -14 -7 2 -15 -1 -20 -8 -4 -7 -3 -10
3 -6 6 4 16 0 23 -8 10 -12 7 -13 -18 -5 -25 7 -30 5 -25 -6 3 -8 10 -11 16
-7 6 3 7 1 3 -5 -4 -7 -3 -12 3 -12 6 0 7 -7 4 -17 -5 -12 -3 -14 8 -8 11 6
12 5 2 -5 -9 -9 -9 -17 -3 -25 8 -9 4 -12 -11 -11 -12 0 -24 -5 -27 -13 -3 -8
0 -11 7 -7 7 5 9 1 4 -11 -6 -17 -5 -17 14 0 11 9 24 17 29 17 5 0 -4 -11 -20
-25 -16 -13 -33 -22 -37 -19 -5 3 -9 2 -10 -3 0 -4 -2 -16 -4 -26 -2 -9 1 -15
6 -11 5 3 7 10 4 15 -4 5 -1 9 4 9 6 0 11 -15 12 -32 0 -28 2 -30 9 -13 8 18
9 17 7 -6 -1 -29 -23 -29 -30 -1 -3 10 -3 -5 -1 -33 2 -27 9 -51 14 -53 15 -5
12 -23 -2 -20 -7 2 -13 -2 -13 -7 0 -6 6 -9 15 -7 13 2 13 2 0 -7 -8 -5 -11
-13 -8 -16 10 -10 28 4 28 21 0 8 4 14 8 14 4 0 8 -9 8 -19 0 -11 -3 -18 -7
-15 -4 2 -12 -3 -19 -11 -10 -12 -16 -13 -29 -3 -13 10 -12 8 2 -8 9 -11 17
-26 17 -32 0 -7 6 -12 12 -12 7 0 2 -7 -10 -16 -26 -18 -29 -34 -4 -35 28 -1
-17 -17 -50 -18 l-28 -1 0 349 c0 264 4 369 15 434 68 390 398 735 791 827
172 41 335 45 489 14z m883 8 c2 -7 -1 -12 -8 -12 -6 0 -9 4 -6 9 4 5 1 12 -4
14 -6 3 -5 4 2 3 6 -1 14 -8 16 -14z m295 -7 c4 3 5 2 2 -1 -2 -4 0 -16 6 -28
9 -18 8 -19 -3 -5 -7 9 -20 14 -28 12 -13 -4 -13 -3 0 6 12 9 12 11 -3 17 -9
3 -17 11 -17 17 0 5 8 3 18 -6 10 -10 22 -15 25 -12z m-2613 -10 c0 -8 -4 -17
-10 -20 -6 -4 -7 1 -3 11 4 12 3 15 -5 10 -8 -5 -10 -2 -6 8 7 18 24 12 24 -9z
m2463 -9 c4 -10 1 -13 -8 -9 -8 3 -12 9 -9 14 7 12 11 11 17 -5z m-2491 -15
c16 -18 15 -20 -2 -18 -10 1 -16 5 -13 10 3 5 -1 13 -8 18 -8 5 -9 9 -4 9 6 0
18 -9 27 -19z m2398 9 c0 -5 -2 -10 -4 -10 -3 0 -8 5 -11 10 -3 6 -1 10 4 10
6 0 11 -4 11 -10z m75 -48 c-3 -3 -11 0 -18 7 -9 10 -8 11 6 5 10 -3 15 -9 12
-12z m105 8 c0 -5 -8 -10 -17 -10 -15 0 -16 2 -3 10 19 12 20 12 20 0z m-2641
-3 c-2 -1 -13 -9 -24 -17 -19 -14 -19 -14 -6 3 7 9 18 17 24 17 6 0 8 -1 6 -3z
m51 -1 c0 -2 -6 -9 -14 -15 -11 -9 -16 -9 -22 0 -4 7 -3 9 4 5 6 -3 13 -2 17
4 6 10 15 14 15 6z m2620 -10 c0 -2 -7 -7 -16 -10 -8 -3 -12 -2 -9 4 6 10 25
14 25 6z m85 -6 c3 -6 -1 -7 -9 -4 -18 7 -21 14 -7 14 6 0 13 -4 16 -10z
m-2869 -12 c3 -3 -7 -5 -21 -5 -14 0 -28 3 -30 7 -5 9 42 6 51 -2z m38 -29
c-3 -5 -3 -9 0 -9 2 0 12 -3 22 -7 13 -5 15 -3 9 7 -6 9 -4 11 4 5 8 -5 9 -11
3 -17 -13 -13 -55 9 -46 24 4 7 -1 8 -16 3 -20 -6 -21 -5 -9 8 15 16 44 3 33
-14z m91 21 c3 -6 -1 -7 -9 -4 -18 7 -21 14 -7 14 6 0 13 -4 16 -10z m-234
-33 c-5 -5 -8 -15 -7 -21 2 -6 1 -8 -1 -3 -3 4 -9 5 -14 2 -5 -4 -6 2 -2 11 5
13 3 15 -7 9 -8 -5 -11 -4 -7 1 3 5 15 10 26 10 12 0 17 -4 12 -9z m54 -29 c5
-4 0 -6 -12 -6 -13 1 -19 7 -16 15 3 8 8 10 12 6 3 -4 10 -11 16 -15z m59 7
c-4 -8 -11 -12 -16 -9 -6 4 -5 10 3 15 19 12 19 11 13 -6z m-169 -13 c-3 -3
-11 0 -18 7 -9 10 -8 11 6 5 10 -3 15 -9 12 -12z m2980 8 c3 -6 -1 -7 -9 -4
-18 7 -21 14 -7 14 6 0 13 -4 16 -10z m-2940 -20 c3 -6 -1 -7 -9 -4 -18 7 -21
14 -7 14 6 0 13 -4 16 -10z m1740 0 c-3 -5 -12 -7 -20 -3 -21 7 -19 13 6 13
11 0 18 -4 14 -10z m150 -10 c3 -5 -1 -10 -9 -10 -9 0 -16 -4 -16 -9 0 -12 33
-9 43 4 5 6 7 4 5 -5 -3 -9 -19 -15 -49 -16 -24 -1 -36 1 -27 3 9 2 20 13 23
24 7 21 20 25 30 9z m-1900 -11 c11 -17 -1 -21 -15 -4 -8 9 -8 15 -2 15 6 0
14 -5 17 -11z m-22 -22 c4 3 7 1 7 -5 0 -20 -19 -13 -30 11 -10 20 -10 20 3 5
8 -10 17 -15 20 -11z m72 -7 c3 -6 -1 -7 -9 -4 -18 7 -21 14 -7 14 6 0 13 -4
16 -10z m-183 -7 c-10 -4 -10 -8 0 -21 12 -15 11 -16 -4 -3 -19 14 -15 32 5
30 8 0 8 -2 -1 -6z m1392 -1 c2 -4 -6 -9 -20 -10 -13 -1 -24 3 -24 8 0 12 37
14 44 2z m-1274 -37 c14 -19 14 -19 -2 -6 -10 7 -18 18 -18 24 0 6 1 8 3 6 1
-2 9 -13 17 -24z m30 11 c-7 -7 -14 -6 -21 1 -9 9 -7 12 9 10 14 -1 18 -5 12
-11z m-60 -49 c0 -6 -3 -7 -7 -4 -3 4 -12 -2 -20 -13 -8 -11 -20 -20 -26 -20
-7 0 -6 4 3 10 8 5 11 10 5 10 -5 0 -2 5 8 11 9 6 15 14 12 20 -3 5 1 6 9 3 9
-3 16 -11 16 -17z m1251 6 c13 -16 12 -17 -3 -4 -17 13 -22 21 -14 21 2 0 10
-8 17 -17z m-1364 -8 c0 -8 -4 -12 -9 -9 -4 3 -8 9 -8 15 0 5 4 9 8 9 5 0 9
-7 9 -15z m3448 -5 c-3 -5 -12 -10 -18 -10 -7 0 -6 4 3 10 19 12 23 12 15 0z
m-54 -27 c13 -16 12 -17 -3 -4 -17 13 -22 21 -14 21 2 0 10 -8 17 -17z m-3466
-33 c-3 -6 -12 -10 -18 -10 -9 0 -8 3 1 8 7 5 10 17 7 28 -6 17 -6 18 5 1 6
-9 8 -22 5 -27z m25 25 c7 -9 8 -15 2 -15 -5 0 -12 7 -16 15 -3 8 -4 15 -2 15
2 0 9 -7 16 -15z m47 -39 c-2 -5 -9 -11 -15 -12 -7 -1 -8 0 -2 3 17 8 11 23
-7 17 -14 -5 -15 -4 -4 4 7 5 10 16 7 23 -4 8 0 5 8 -6 9 -10 15 -24 13 -29z
m2426 27 c-4 -9 -2 -14 3 -10 6 3 16 2 24 -4 12 -7 11 -9 -5 -9 -20 -1 -20 -1
-1 -15 11 -8 16 -15 12 -15 -5 0 -3 -7 4 -15 7 -8 10 -15 6 -15 -3 0 -8 0 -11
0 -3 0 -5 3 -6 8 0 4 -11 21 -23 37 -22 29 -24 55 -5 55 4 0 5 -7 2 -17z
m-101 0 c-6 -2 -10 -9 -6 -14 3 -5 0 -9 -5 -9 -6 0 -11 7 -11 15 0 8 8 15 18
14 10 0 12 -3 4 -6z m-1212 -56 c0 -4 5 -5 12 -1 7 4 8 3 4 -4 -12 -20 -24
-13 -35 21 -10 29 -9 30 4 13 8 -11 15 -24 15 -29z m-1263 11 c-3 -8 -6 -5 -6
6 -1 11 2 17 5 13 3 -3 4 -12 1 -19z m31 -9 c-3 -8 -7 -3 -11 10 -4 17 -3 21
5 13 5 -5 8 -16 6 -23z m72 9 c10 -21 10 -21 -3 -6 -8 10 -18 14 -22 10 -5 -4
-5 -1 -1 6 10 17 14 15 26 -10z m2337 2 c1 -11 -2 -22 -8 -25 -5 -4 -6 2 -2
11 4 12 3 15 -5 10 -8 -5 -10 -2 -6 8 8 22 19 20 21 -4z m48 10 c-3 -5 -12
-10 -18 -10 -7 0 -6 4 3 10 19 12 23 12 15 0z m76 -23 c-1 -4 -1 -18 -1 -32 0
-14 -9 -34 -19 -44 -11 -11 -17 -21 -15 -24 3 -2 -2 -7 -10 -10 -9 -4 -18 -1
-22 5 -5 7 -2 8 6 3 8 -5 11 -3 9 4 -3 7 -8 12 -12 12 -3 0 -18 6 -33 14 -15
7 -34 11 -42 7 -14 -5 -15 -4 -2 10 8 9 17 13 20 9 14 -20 62 -31 72 -16 5 6
8 6 8 -2 0 -7 5 -13 11 -13 5 0 7 5 4 10 -3 6 0 10 7 10 9 0 9 3 -2 10 -8 5
-10 10 -4 10 6 0 10 12 8 26 -1 14 2 24 8 22 5 -2 9 -7 9 -11z m-2569 -11 c7
4 8 2 4 -5 -9 -13 -26 -5 -25 12 0 9 2 8 6 -1 2 -6 10 -9 15 -6z m2383 -6 c-3
-5 -12 -10 -18 -10 -7 0 -6 4 3 10 19 12 23 12 15 0z m131 -12 c12 -14 13 -18
3 -10 -9 6 -18 10 -21 7 -2 -3 -5 2 -5 10 0 19 0 19 23 -7z m-2479 -4 c-3 -3
-12 -4 -19 -1 -8 3 -5 6 6 6 11 1 17 -2 13 -5z m2683 -29 l25 -30 -27 24 c-16
14 -28 20 -28 14 0 -16 46 -54 55 -46 4 5 5 2 1 -5 -6 -11 -12 -10 -28 5 -11
10 -23 16 -26 13 -7 -7 -12 29 -5 47 3 7 6 13 7 11 0 -2 12 -16 26 -33z
m-2723 10 c0 -8 -4 -12 -8 -9 -4 2 -15 -3 -24 -12 -9 -9 -19 -13 -23 -9 -4 4
-2 10 4 12 6 2 20 10 30 18 10 8 19 15 20 15 0 0 1 -7 1 -15z m1318 5 c3 -6
-1 -7 -9 -4 -18 7 -21 14 -7 14 6 0 13 -4 16 -10z m-55 -4 c0 -2 -8 -10 -17
-17 -16 -13 -17 -12 -4 4 13 16 21 21 21 13z m1390 -7 c0 -5 5 -7 12 -3 7 5 8
3 4 -5 -5 -7 0 -21 10 -32 19 -21 10 -27 -10 -6 -21 21 -38 57 -26 57 5 0 10
-5 10 -11z m-45 -9 c3 -5 1 -10 -4 -10 -6 0 -11 5 -11 10 0 6 2 10 4 10 3 0 8
-4 11 -10z m-1366 -29 c-6 -2 -18 4 -27 13 -15 15 -15 15 10 4 15 -7 23 -15
17 -17z m-1309 -27 c0 -7 -4 -16 -10 -19 -6 -3 -7 1 -4 10 4 9 -3 23 -17 36
l-24 20 28 -17 c15 -9 27 -22 27 -30z m45 19 c-1 -10 2 -24 8 -31 7 -9 6 -11
-6 -6 -14 5 -16 22 -8 52 4 11 9 -2 6 -15z m55 13 c0 -2 -6 -9 -14 -15 -11 -9
-16 -9 -22 0 -4 7 -3 9 4 5 6 -3 13 -2 17 4 6 10 15 14 15 6z m2560 0 c0 -11
-19 -15 -25 -6 -3 5 1 10 9 10 9 0 16 -2 16 -4z m1135 -26 c10 -11 16 -20 13
-20 -3 0 -13 9 -23 20 -10 11 -16 20 -13 20 3 0 13 -9 23 -20z m-1011 -7 c4
-10 4 -14 0 -11 -3 4 -15 -3 -26 -15 -19 -22 -19 -22 -2 11 10 17 19 32 20 32
1 0 5 -8 8 -17z m-2826 -49 c-4 -6 -4 -15 0 -19 4 -5 1 -5 -6 -1 -9 6 -10 11
-2 21 8 9 7 17 -5 28 -11 12 -12 16 -2 20 15 5 27 -34 15 -49z m2483 -17 c12
-22 12 -22 -10 -3 -11 11 -21 23 -21 28 0 14 19 -1 31 -25z m264 15 c-3 -3
-11 0 -18 7 -9 10 -8 11 6 5 10 -3 15 -9 12 -12z m-1460 -40 c-3 -3 -11 0 -18
7 -9 10 -8 11 6 5 10 -3 15 -9 12 -12z m1450 8 c-3 -5 -12 -10 -18 -10 -7 0
-6 4 3 10 19 12 23 12 15 0z m-2795 -9 c0 -6 -4 -12 -8 -15 -5 -3 -9 1 -9 9 0
8 4 15 9 15 4 0 8 -4 8 -9z m62 -15 c10 6 11 4 0 -7 -10 -11 -15 -10 -30 6
-15 17 -15 18 0 6 9 -7 23 -9 30 -5z m-67 -26 c8 0 16 -4 19 -8 2 -4 -12 -6
-32 -3 -20 2 -32 6 -25 8 7 2 10 12 7 21 -5 15 -4 15 6 0 6 -10 17 -18 25 -18z
m2590 20 c-3 -5 -1 -10 4 -10 14 0 56 -67 78 -122 20 -53 29 -63 38 -47 5 8 4
10 -3 5 -7 -4 -12 -2 -12 4 0 7 6 10 12 8 16 -6 17 -38 3 -57 -7 -11 -7 -13 2
-8 6 4 14 3 17 -2 7 -11 25 -9 46 4 13 7 13 6 2 -7 -8 -10 -9 -18 -3 -22 6 -4
8 -13 5 -20 -3 -8 -1 -17 5 -20 6 -4 7 -14 4 -22 -4 -12 -8 -12 -13 -4 -4 7
-13 9 -20 5 -9 -6 -9 -9 1 -16 7 -4 14 -20 15 -36 2 -15 1 -22 -2 -15 -8 18
-24 14 -17 -5 4 -11 3 -14 -5 -9 -9 5 -9 0 -2 -19 13 -34 13 -48 -1 -39 -7 4
-6 -2 1 -17 9 -17 10 -24 2 -27 -8 -2 -6 -11 4 -28 9 -13 19 -22 23 -20 4 3
13 -5 21 -17 12 -19 11 -21 -2 -10 -8 7 -18 10 -22 6 -4 -4 -11 -1 -16 7 -7
12 -9 10 -8 -6 2 -16 7 -20 23 -17 15 4 16 2 7 -5 -11 -7 -10 -11 5 -17 10 -5
24 -7 32 -6 11 2 11 0 0 -13 -12 -13 -15 -13 -27 2 -11 15 -13 15 -28 0 -15
-15 -15 -16 2 -15 11 1 19 -5 20 -13 2 -34 16 -51 38 -45 19 5 19 5 3 -5 -9
-6 -21 -8 -26 -5 -6 3 -9 -4 -8 -15 1 -20 6 -23 39 -23 10 0 15 -3 13 -8 -3
-4 -17 -6 -31 -3 -16 3 -23 1 -19 -6 3 -5 1 -10 -5 -10 -6 0 -8 -5 -4 -12 4
-6 3 -8 -4 -4 -19 12 -26 -17 -7 -31 11 -7 13 -13 6 -13 -7 0 -9 -5 -6 -10 4
-6 11 -8 16 -5 5 3 6 -2 2 -11 -4 -10 -2 -15 4 -11 5 3 10 0 10 -8 0 -8 -5
-12 -10 -8 -5 3 -6 -3 -3 -15 4 -11 3 -23 -1 -25 -5 -3 -10 3 -11 14 -1 10 -3
27 -4 38 -1 12 -8 17 -18 14 -9 -3 -11 -2 -5 4 13 10 13 32 1 36 -12 3 -16
-42 -4 -49 4 -3 6 -9 3 -14 -3 -5 -1 -11 5 -15 5 -3 10 -11 10 -16 0 -6 -4 -8
-8 -5 -5 3 -16 -6 -26 -20 -20 -26 -45 -32 -47 -11 0 6 -2 167 -4 357 -3 366
-6 393 -57 494 -13 25 -15 36 -6 31 7 -3 5 0 -6 9 -10 8 -15 19 -12 24 3 6 -1
13 -10 16 -13 5 -12 26 2 26 3 0 2 -4 -1 -10z m-1297 -18 c-10 -2 -18 -8 -18
-14 0 -6 -2 -9 -5 -6 -12 12 7 37 23 30 16 -6 15 -7 0 -10z m-64 -7 c-4 -8
-11 -12 -16 -9 -6 4 -5 10 3 15 19 12 19 11 13 -6z m1654 -17 c6 -1 10 -4 7
-6 -3 -3 1 -12 7 -21 11 -14 10 -14 -7 0 -11 9 -27 17 -35 17 -8 0 -39 1 -69
3 -36 1 -56 -3 -63 -12 -8 -12 -9 -12 -6 1 7 23 65 30 166 18z m-2914 -10 c-3
-4 -11 -5 -19 -1 -21 7 -19 12 4 10 11 0 18 -5 15 -9z m1283 -1 c0 -8 -6 -14
-14 -14 -14 0 -17 10 -6 20 10 11 20 8 20 -6z m1687 -26 c-2 -3 -12 3 -22 13
-16 17 -16 18 5 5 12 -7 20 -15 17 -18z m-164 8 c0 -4 -6 -9 -13 -12 -8 -3
-14 0 -14 7 0 7 6 13 14 13 7 0 13 -4 13 -8z m73 -9 c10 -12 9 -12 -4 -2 -9 6
-18 9 -21 6 -3 -3 -9 -1 -12 4 -9 15 22 8 37 -8z m-2853 -4 c-6 -8 -18 -12
-26 -9 -22 8 -16 18 12 21 22 2 24 0 14 -12z m1240 -30 c0 -2 -8 -10 -17 -17
-16 -13 -17 -12 -4 4 13 16 21 21 21 13z m1523 -21 c-3 -8 -10 -15 -15 -15 -7
0 -6 5 1 13 6 8 7 18 3 22 -4 5 -2 5 5 1 7 -4 10 -13 6 -21z m113 16 c-4 -5
-3 -11 1 -14 5 -2 3 -3 -4 -1 -18 4 -24 -8 -11 -23 8 -11 7 -12 -6 -7 -20 8
-20 13 1 36 17 19 28 24 19 9z m-1663 -40 c-4 -3 -12 -10 -16 -16 -5 -6 -7 -3
-3 8 6 19 -5 22 -21 6 -9 -9 -11 -7 -6 9 4 18 8 19 29 10 13 -6 21 -14 17 -17z
m3210 -91 c20 -33 33 -60 28 -60 -6 0 -12 4 -16 10 -3 5 -13 6 -21 3 -14 -5
-15 -3 -5 15 13 25 14 33 2 30 -5 -2 -20 9 -34 25 -14 15 -22 27 -17 27 6 0
10 4 10 10 0 5 -7 6 -17 3 -11 -4 -14 -3 -9 5 4 7 2 12 -6 12 -9 0 -9 3 2 10
17 11 25 3 83 -90z m-4616 73 c-4 -3 -1 -13 6 -22 11 -14 10 -14 -5 -2 -16 12
-16 31 -1 31 4 0 3 -3 0 -7z m58 -4 c11 -16 1 -19 -13 -3 -7 8 -8 14 -3 14 5
0 13 -5 16 -11z m2940 2 c-3 -5 -1 -12 4 -16 6 -3 8 -12 4 -21 -5 -12 -7 -12
-18 3 -9 13 -10 22 -3 30 12 15 22 17 13 4z m-1670 -21 c3 -5 1 -10 -4 -10 -6
0 -11 5 -11 10 0 6 2 10 4 10 3 0 8 -4 11 -10z m62 -45 c0 -8 -4 -15 -9 -15
-10 0 -11 14 -1 23 9 10 10 9 10 -8z m197 -11 c3 -8 2 -12 -4 -9 -6 3 -10 10
-10 16 0 14 7 11 14 -7z m1486 1 c5 3 12 0 16 -7 4 -7 4 -10 -1 -6 -10 10 -37
-11 -29 -23 3 -5 0 -9 -5 -9 -6 0 -11 6 -11 13 0 6 -9 1 -20 -13 -14 -17 -18
-19 -14 -6 9 23 48 64 52 53 2 -4 8 -5 12 -2z m-3055 -5 c-3 -5 -12 -10 -18
-10 -7 0 -6 4 3 10 19 12 23 12 15 0z m1375 -30 c0 -5 -2 -10 -4 -10 -3 0 -8
5 -11 10 -3 6 -1 10 4 10 6 0 11 -4 11 -10z m-1435 -10 c8 -13 -5 -13 -25 0
-13 8 -13 10 2 10 9 0 20 -4 23 -10z m3099 -18 c3 -5 -1 -9 -9 -9 -8 0 -15 4
-15 9 0 4 4 8 9 8 6 0 12 -4 15 -8z m1592 -19 c15 -20 18 -33 7 -33 -5 0 -13
11 -20 25 -13 29 -6 33 13 8z m-1513 -10 c-4 -11 -3 -14 5 -9 7 4 14 -3 17
-17 10 -37 12 -149 4 -177 -7 -24 -14 86 -9 151 1 29 -25 47 -34 23 -3 -9 -6
-96 -6 -194 0 -182 7 -215 37 -175 14 20 17 16 7 -9 -10 -25 -43 -19 -50 8 -3
14 -7 96 -8 184 -2 120 1 169 12 196 8 20 18 36 23 36 4 0 5 -7 2 -17z m-1842
-35 c11 -8 10 -9 -3 -4 -10 3 -22 -2 -28 -12 -8 -14 -9 -13 -6 8 3 14 5 30 5
35 1 6 5 4 10 -4 5 -7 15 -18 22 -23z m3394 -9 c3 -13 9 -25 15 -27 5 -2 10
-8 10 -13 0 -6 -4 -8 -8 -5 -5 3 -9 -1 -9 -8 0 -8 6 -12 14 -9 14 6 68 -101
58 -117 -3 -4 0 -10 7 -12 6 -2 12 -11 14 -20 1 -11 -4 -14 -19 -10 -13 3 -16
7 -9 10 10 3 9 9 -5 25 -10 11 -12 17 -4 12 9 -5 12 -3 9 6 -3 8 -10 13 -16
12 -5 -1 -9 5 -8 15 2 9 -3 23 -11 30 -7 8 -11 17 -8 22 3 4 -5 10 -16 13 -12
3 -19 10 -16 15 3 4 -2 22 -13 39 -13 22 -15 34 -7 42 13 13 16 10 22 -20z
m-4790 1 c-3 -5 -12 -10 -18 -10 -7 0 -6 4 3 10 19 12 23 12 15 0z m3103 -25
c-3 -3 -9 2 -12 12 -6 14 -5 15 5 6 7 -7 10 -15 7 -18z m-25 -11 c-1 -10 3
-27 9 -39 10 -18 10 -19 -5 -6 -10 8 -17 9 -17 3 0 -6 4 -13 10 -17 5 -3 7
-12 4 -20 -4 -10 0 -13 15 -10 12 2 19 0 16 -5 -6 -9 -44 -5 -54 6 -3 4 0 9 7
11 6 3 9 10 5 16 -10 16 -10 66 0 60 4 -2 7 0 7 6 0 5 -5 12 -10 14 -6 3 -5 4
2 3 7 -2 12 -11 11 -22z m98 -27 c-10 -9 -11 -8 -5 6 3 10 9 15 12 12 3 -3 0
-11 -7 -18z m-1741 -23 c0 -8 -5 -12 -10 -9 -6 4 -8 11 -5 16 9 14 15 11 15
-7z m-1479 -27 c-10 -9 -11 -8 -5 6 3 10 9 15 12 12 3 -3 0 -11 -7 -18z m3313
-166 c2 -28 -1 -48 -6 -45 -4 3 -8 28 -7 55 3 62 11 56 13 -10z m-1870 36 c-5
-14 -44 -21 -44 -7 0 5 10 11 23 13 12 2 23 5 24 6 1 0 0 -5 -3 -12z m3453 -2
c0 -8 -4 -12 -9 -9 -5 3 -6 10 -3 15 9 13 12 11 12 -6z m-3170 -37 c-3 -7 -5
-2 -5 12 0 14 2 19 5 13 2 -7 2 -19 0 -25z m3243 -1 c0 -5 -4 -5 -10 -2 -5 3
-10 14 -10 23 0 15 2 15 10 2 5 -8 10 -19 10 -23z m-1733 -20 c0 -8 -6 -14
-14 -14 -9 0 -10 4 -2 14 6 7 12 13 14 13 1 0 2 -6 2 -13z m-1832 -36 c3 -5 1
-12 -5 -16 -5 -3 -10 1 -10 9 0 18 6 21 15 7z m322 -68 c-3 -10 -5 -2 -5 17 0
19 2 27 5 18 2 -10 2 -26 0 -35z m3267 -15 c-5 -7 -2 -9 7 -6 10 4 14 -2 14
-18 0 -19 -2 -21 -13 -11 -15 16 -25 60 -11 52 5 -4 6 -11 3 -17z m-3267 -75
c-2 -16 -4 -5 -4 22 0 28 2 40 4 28 2 -13 2 -35 0 -50z m-310 32 c0 -17 -13
-20 -21 -6 -4 5 0 12 6 14 7 3 13 6 14 6 0 1 1 -6 1 -14z m3633 -57 c0 -4 -5
-8 -12 -8 -6 0 -8 3 -5 7 4 3 -1 16 -10 27 -18 21 -18 21 5 2 12 -11 22 -23
22 -28z m10 -99 c0 -5 -4 -9 -8 -9 -5 0 -9 7 -9 15 0 8 4 12 9 9 4 -3 8 -9 8
-15z m-3752 -18 c-68 -17 -102 -42 -128 -91 -10 -18 -15 -84 -18 -225 -2 -110
-6 -202 -8 -204 -2 -2 -4 93 -4 213 0 239 3 253 62 300 28 22 43 26 98 25 l65
-1 -67 -17z m1777 9 c8 -12 -1250 -13 -1310 -1 -23 5 249 9 632 10 438 1 674
-2 678 -9z m459 -8 c3 -5 -1 -9 -9 -9 -8 0 -12 4 -9 9 3 4 7 8 9 8 2 0 6 -4 9
-8z m1534 -47 c-3 -3 -9 2 -12 12 -6 14 -5 15 5 6 7 -7 10 -15 7 -18z m-3177
-25 c167 -52 291 -178 349 -355 10 -30 13 -106 12 -295 -2 -285 -8 -356 -28
-364 -7 -3 -11 -12 -8 -20 12 -31 -87 -187 -114 -178 -7 2 -15 -5 -18 -15 -8
-21 -44 -63 -55 -63 -4 0 -6 9 -4 20 3 17 1 19 -16 10 -22 -12 -26 -22 -5 -14
10 4 14 0 12 -12 -4 -24 -20 -28 -40 -9 -12 12 -16 13 -16 3 0 -11 -2 -11 -9
0 -6 10 -10 10 -20 -2 -16 -19 4 -33 24 -16 8 7 16 7 19 1 3 -5 -8 -14 -24
-20 -17 -5 -30 -7 -30 -4 0 3 -6 1 -12 -5 -31 -24 -263 -51 -255 -29 2 7 14
11 25 9 16 -2 22 2 22 15 0 14 -2 15 -9 4 -5 -7 -13 -11 -19 -7 -6 3 -16 0
-24 -7 -14 -15 -92 -11 -82 4 3 5 -1 6 -9 3 -8 -3 -22 2 -31 11 -9 9 -20 13
-26 10 -6 -4 -9 -1 -8 7 2 7 -5 12 -15 11 -12 0 -16 4 -13 13 3 7 -2 17 -10
22 -8 5 -16 16 -18 25 -1 9 -5 19 -9 23 -3 4 -5 -3 -2 -15 3 -15 -1 -21 -14
-21 -26 0 -33 11 -16 24 13 9 11 11 -9 11 -13 0 -22 -4 -19 -9 3 -5 -1 -5 -9
0 -29 16 -89 97 -84 111 3 8 2 12 -3 8 -16 -9 -50 60 -66 134 -20 98 -21 542
-1 617 45 168 169 302 336 361 88 31 257 33 351 3z m-1677 -17 c-1 -7 -2 -293
-4 -635 -1 -343 -4 -616 -7 -607 -2 9 -15 22 -29 29 -20 11 -27 11 -37 1 -10
-11 -7 -12 12 -6 19 6 23 4 18 -9 -7 -17 8 -32 16 -16 3 6 4 5 3 -2 -2 -7 -9
-13 -17 -13 -19 0 -30 -18 -16 -27 6 -4 9 -10 5 -13 -3 -3 -12 1 -21 9 -17 18
-28 11 -20 -12 4 -13 2 -12 -10 3 -14 18 -18 18 -41 5 -22 -11 -29 -11 -39 -1
-10 11 -7 12 13 6 17 -4 21 -3 11 3 -7 5 -11 14 -7 20 3 6 1 14 -5 18 -8 4 -9
3 -5 -5 4 -6 0 -14 -8 -17 -9 -3 -16 -12 -16 -20 0 -8 -5 -14 -10 -14 -7 0 -7
6 0 20 10 18 7 24 -12 21 -5 0 -8 4 -8 9 0 12 12 13 26 2 5 -4 -1 3 -13 15
-17 18 -20 29 -14 50 4 16 6 35 3 43 -4 12 -2 13 9 3 17 -16 23 -57 7 -47 -7
4 -8 3 -4 -4 4 -7 1 -12 -6 -12 -29 -1 33 -27 70 -29 6 -1 12 -9 12 -18 0 -15
2 -14 14 2 8 11 12 24 9 29 -4 5 -1 6 4 3 15 -10 58 27 49 42 -4 6 -12 9 -17
5 -5 -3 -7 -9 -4 -14 3 -5 0 -12 -6 -16 -7 -4 -9 -3 -6 3 4 6 0 16 -7 22 -11
9 -16 9 -22 0 -4 -8 -3 -9 4 -5 7 4 12 1 12 -9 0 -10 -5 -13 -12 -9 -8 5 -9 0
-5 -15 3 -14 1 -21 -6 -18 -7 2 -11 14 -11 25 1 12 -3 22 -8 22 -5 0 -8 -8 -6
-17 2 -12 -2 -17 -12 -14 -8 2 -20 4 -27 4 -7 0 -10 4 -7 8 2 5 11 6 19 2 8
-3 15 0 15 7 0 6 -4 8 -10 5 -5 -3 -10 -1 -10 5 0 7 6 10 13 7 25 -10 38 8 16
22 -15 9 -19 9 -14 0 5 -7 3 -10 -6 -7 -8 3 -13 11 -11 17 1 7 -2 10 -7 7 -5
-4 -12 -2 -16 4 -9 15 -27 1 -21 -17 3 -8 1 -11 -4 -8 -15 10 -12 22 12 45 12
11 18 23 15 27 -4 3 -7 1 -7 -5 0 -7 -6 -12 -14 -12 -9 0 -12 7 -9 20 3 12 0
20 -8 20 -7 0 -10 2 -7 5 3 3 16 1 30 -4 20 -8 24 -6 26 12 1 17 -1 19 -8 7
-7 -12 -12 -12 -21 -3 -7 7 -14 21 -15 30 -1 10 -5 41 -9 68 l-6 50 21 -25 21
-25 -12 28 c-7 15 -16 27 -21 27 -16 0 -5 94 11 108 14 11 14 11 -1 6 -16 -6
-18 20 -20 388 -2 216 -2 397 0 401 2 4 63 6 135 5 98 -2 132 -6 131 -15z
m420 -9 c198 -48 307 -205 294 -425 -3 -56 -12 -91 -31 -130 -34 -70 -120
-164 -142 -155 -9 3 -14 2 -10 -3 3 -5 -16 -17 -42 -27 -27 -10 -50 -19 -52
-20 -2 -2 15 -33 38 -69 23 -36 61 -98 85 -138 24 -40 73 -121 109 -181 37
-59 64 -113 60 -119 -3 -5 -2 -7 4 -4 5 3 17 -8 27 -26 13 -24 13 -27 2 -13
-9 11 -16 16 -16 12 0 -5 -6 -3 -14 3 -11 9 -25 9 -53 2 -59 -16 -159 -17
-177 -2 -8 7 -20 10 -25 7 -5 -4 -13 -1 -16 4 -9 14 25 52 41 46 7 -3 10 2 7
15 -5 17 -7 18 -17 4 -10 -14 -14 -14 -33 5 -12 11 -29 20 -37 20 -19 0 -40
36 -32 56 3 8 0 13 -7 11 -7 -1 -13 12 -14 35 0 23 3 36 9 32 6 -4 5 3 -1 15
-14 25 -23 28 -14 4 6 -15 4 -16 -8 -6 -13 10 -16 10 -16 -2 0 -8 4 -12 9 -9
4 3 8 3 8 0 0 -3 -4 -7 -10 -11 -5 -3 -18 12 -30 35 -11 22 -42 73 -68 114
-26 40 -55 88 -65 106 -16 31 -19 32 -72 28 l-55 -3 -2 88 c-1 48 -2 94 -2
103 -1 14 17 17 134 19 143 2 163 7 213 54 42 38 57 73 57 132 0 71 -37 134
-93 160 -35 15 -66 19 -179 19 l-137 0 -3 115 c-2 95 0 115 12 119 32 9 308
-6 364 -20z m2859 -14 c-1 -19 -2 -75 -2 -125 l-1 -90 -200 3 -200 3 -1 -293
c-2 -494 -4 -576 -13 -570 -5 3 -6 -1 -1 -9 16 -24 14 -63 -2 -81 -9 -10 -13
-21 -10 -25 4 -3 7 -1 7 5 0 7 3 12 8 12 4 0 7 -18 8 -40 0 -25 -4 -39 -10
-37 -6 2 -24 -2 -41 -9 -16 -7 -23 -13 -15 -13 8 -1 21 3 29 8 20 13 40 3 38
-18 -1 -12 -7 -17 -19 -13 -10 2 -15 8 -12 14 7 12 -49 -2 -57 -14 -3 -6 -10
-9 -15 -7 -61 17 -78 17 -91 1 -10 -14 -12 -14 -8 -1 7 20 -45 20 -62 -1 -9
-12 -11 108 -10 538 l2 553 -202 -3 -202 -3 -3 123 c-2 68 -1 126 1 128 3 2
248 3 545 2 l541 -3 -2 -35z m-2190 3 c-3 -7 -6 -13 -8 -13 -2 0 -5 6 -8 13
-3 8 1 14 8 14 7 0 11 -6 8 -14z m3471 -397 c65 -32 118 -89 142 -155 23 -62
34 -498 12 -486 -7 5 -10 5 -6 0 4 -4 2 -15 -5 -24 -11 -14 -10 -14 6 -2 15
12 17 11 17 -8 0 -12 -4 -19 -10 -16 -6 4 -10 -6 -10 -22 0 -22 -2 -25 -10
-13 -6 9 -10 10 -10 3 0 -6 4 -14 9 -18 6 -3 9 -18 7 -33 -1 -15 2 -33 7 -39
12 -16 -5 -17 -20 -2 -9 9 -18 8 -36 -4 -13 -8 -29 -12 -36 -7 -9 5 -4 10 15
14 21 6 25 9 14 16 -12 7 -11 10 4 16 11 4 21 2 26 -7 5 -7 13 -10 17 -5 4 5
3 11 -4 13 -7 2 -9 12 -6 21 3 11 2 13 -4 6 -4 -6 -26 -14 -48 -18 -29 -5 -36
-4 -25 4 13 9 12 12 -4 25 -30 23 -36 18 -19 -16 18 -36 15 -40 -29 -42 -18
-1 -36 -6 -40 -12 -4 -5 -8 1 -9 15 -6 162 -5 207 5 219 8 11 8 13 -1 8 -8 -5
-12 28 -13 125 -4 199 -4 216 -11 212 -4 -2 -15 6 -25 17 -29 32 -69 49 -117
49 -57 0 -105 -32 -134 -90 -22 -43 -23 -54 -23 -306 0 -201 -3 -264 -12 -267
-10 -4 -9 -8 2 -16 17 -12 10 -14 -14 -5 -9 3 -13 10 -10 15 6 11 1 11 -21 3
-13 -5 -14 -8 -3 -15 10 -7 9 -9 -4 -9 -10 0 -18 -4 -18 -10 0 -6 9 -6 25 0
15 6 26 6 30 0 4 -6 0 -10 -8 -10 -8 0 -30 -3 -48 -6 -19 -3 -29 -2 -23 3 17
13 24 42 12 49 -6 4 -8 3 -5 -3 4 -6 -5 -23 -18 -39 -19 -22 -25 -25 -25 -12
0 9 7 21 16 26 9 5 15 12 15 15 -3 24 1 29 24 23 18 -5 27 -1 35 14 6 11 18
20 27 20 9 0 14 2 11 5 -10 10 -57 -6 -54 -18 2 -7 1 -9 -1 -4 -3 4 -9 5 -13
2 -5 -3 -12 0 -16 6 -4 8 -3 9 4 5 7 -4 12 -2 12 4 0 6 -11 8 -25 6 -13 -3
-27 -1 -30 4 -8 13 6 41 18 33 6 -3 7 -1 3 5 -4 6 -13 9 -21 6 -8 -4 -12 -11
-8 -17 4 -7 -1 -8 -13 -4 -12 5 -7 -3 13 -23 30 -27 32 -32 21 -55 -9 -19 -14
-22 -21 -13 -6 9 -7 8 -3 -4 3 -10 2 -18 -2 -19 -13 -1 -37 -7 -57 -14 -14 -5
-13 -2 5 10 21 14 22 16 4 12 -17 -4 -20 0 -16 26 3 17 1 27 -5 24 -6 -4 -10
45 -12 126 -1 73 -3 144 -5 160 -2 15 1 27 6 27 5 0 7 4 4 8 -2 4 -8 121 -11
260 l-7 251 104 -4 c56 -3 109 -5 117 -5 10 0 12 -15 9 -64 l-4 -64 24 37 c69
107 233 142 366 77z m-5139 -55 c3 -5 2 -12 -3 -15 -5 -3 -9 1 -9 9 0 17 3 19
12 6z m-11 -40 c8 -11 8 -13 0 -8 -16 10 -25 -18 -11 -32 9 -9 8 -11 -6 -5
-11 4 -16 13 -13 21 3 8 6 27 7 41 0 16 3 21 6 12 3 -8 11 -21 17 -29z m-2
-73 c-5 -7 -12 -22 -15 -33 -5 -20 -5 -20 -6 1 0 11 4 25 11 32 16 16 23 15
10 0z m4378 -156 c0 -111 -4 -129 -25 -112 -8 7 -22 7 -36 2 -13 -5 -47 -6
-76 -3 -29 4 -59 3 -68 -1 -9 -6 -15 -5 -15 2 0 6 -5 8 -10 5 -13 -8 -208 -10
-216 -2 -3 3 -17 2 -30 -3 l-24 -10 0 99 c0 55 -3 106 -6 115 -6 14 21 16 250
16 l256 0 0 -108z m-4386 63 c3 -8 1 -15 -4 -15 -6 0 -10 7 -10 15 0 8 2 15 4
15 2 0 6 -7 10 -15z m1 -34 c3 -5 1 -12 -5 -16 -5 -3 -10 1 -10 9 0 18 6 21
15 7z m3074 -273 c-13 -69 -37 -117 -86 -169 l-46 -49 0 -241 -1 -241 -28 -30
-28 -30 -127 4 c-76 3 -136 9 -148 16 -18 11 -15 12 20 10 22 -1 88 -1 146 0
160 3 150 -17 149 286 l0 249 38 33 c40 34 102 138 102 171 0 17 8 33 15 33 1
0 -1 -19 -6 -42z m2248 -160 c-3 -8 -6 -5 -6 6 -1 11 2 17 5 13 3 -3 4 -12 1
-19z m-90 -63 c0 -8 -4 -15 -8 -15 -4 0 -20 -5 -36 -12 -15 -6 -36 -10 -45 -9
-10 1 -18 -2 -18 -6 0 -12 53 -11 61 1 4 4 16 3 27 -3 14 -7 23 -8 27 -1 3 5
11 10 18 10 8 0 8 -3 -1 -12 -9 -9 -8 -16 5 -30 10 -11 11 -18 5 -18 -7 0 -12
5 -12 11 0 8 -4 8 -14 0 -11 -10 -16 -8 -21 9 -8 25 -41 23 -39 -2 1 -13 -6
-16 -32 -15 -18 2 -37 7 -41 11 -4 5 0 6 10 3 9 -4 17 -2 17 5 0 7 5 6 15 -2
10 -9 15 -9 15 -1 0 6 -4 12 -10 12 -5 1 -14 2 -19 3 -6 0 -15 6 -22 13 -12
12 -8 14 55 28 15 3 35 13 43 20 18 19 20 19 20 0z m-4192 -31 c9 -15 12 -23
6 -20 -11 7 -35 46 -28 46 3 0 12 -12 22 -26z m4265 -28 c0 -3 -9 -6 -20 -6
-22 0 -23 1 -14 24 5 13 8 13 20 1 8 -7 14 -16 14 -19z m-3473 6 c8 -5 9 -13
3 -22 -9 -14 -12 -12 -9 6 0 4 -5 11 -13 15 -7 5 -8 9 -3 9 6 0 15 -4 22 -8z
m-1247 -22 c0 -5 -2 -10 -4 -10 -3 0 -8 5 -11 10 -3 6 -1 10 4 10 6 0 11 -4
11 -10z m-110 -20 c0 -5 -2 -10 -4 -10 -3 0 -8 5 -11 10 -3 6 -1 10 4 10 6 0
11 -4 11 -10z m4307 -12 c-3 -8 -6 -5 -6 6 -1 11 2 17 5 13 3 -3 4 -12 1 -19z
m-3682 -16 c-3 -3 -11 0 -18 7 -9 10 -8 11 6 5 10 -3 15 -9 12 -12z m432 -414
c-3 -8 -6 -5 -6 6 -1 11 2 17 5 13 3 -3 4 -12 1 -19z m3436 -183 c-3 -9 -8
-14 -10 -11 -3 3 -2 9 2 15 9 16 15 13 8 -4z m-123 -175 c-12 -16 -24 -30 -26
-30 -3 0 4 14 16 30 12 17 24 30 26 30 3 0 -4 -13 -16 -30z m-112 -140 c-7
-10 -14 -17 -17 -15 -4 4 18 35 25 35 2 0 -1 -9 -8 -20z m-28 -34 c0 -2 -8
-10 -17 -17 -16 -13 -17 -12 -4 4 13 16 21 21 21 13z m-149 -149 c-6 -8 -8
-17 -4 -20 3 -4 1 -7 -5 -7 -15 0 -15 13 0 28 16 16 23 15 9 -1z m-31 -30 c0
-2 -10 -12 -22 -23 l-23 -19 19 23 c18 21 26 27 26 19z m-70 -60 c0 -2 -12
-14 -27 -28 l-28 -24 24 28 c23 25 31 32 31 24z m-60 -50 c0 -2 -10 -12 -22
-23 l-23 -19 19 23 c18 21 26 27 26 19z m-50 -44 c0 -5 -13 -17 -28 -27 l-27
-19 24 26 c26 28 31 32 31 20z"/>
<path d="M2876 5756 c3 -8 1 -17 -5 -21 -18 -11 -12 -23 8 -18 11 3 18 12 16
21 -2 10 -4 20 -4 25 -1 4 -5 7 -11 7 -5 0 -7 -6 -4 -14z"/>
<path d="M2955 5751 c-3 -6 4 -9 15 -8 11 1 20 5 20 9 0 11 -28 10 -35 -1z"/>
<path d="M3525 5719 c-4 -6 -5 -12 -2 -15 2 -3 7 2 10 11 7 17 1 20 -8 4z"/>
<path d="M4020 5569 c0 -5 5 -7 10 -4 6 3 10 8 10 11 0 2 -4 4 -10 4 -5 0 -10
-5 -10 -11z"/>
<path d="M2070 5530 c-9 -6 -10 -10 -3 -10 6 0 15 5 18 10 8 12 4 12 -15 0z"/>
<path d="M1815 5480 c3 -5 8 -10 11 -10 2 0 4 5 4 10 0 6 -5 10 -11 10 -5 0
-7 -4 -4 -10z"/>
<path d="M4590 5270 c-9 -6 -10 -10 -3 -10 6 0 15 5 18 10 8 12 4 12 -15 0z"/>
<path d="M2936 5262 c-3 -3 -6 -10 -6 -16 0 -6 5 -4 10 4 8 13 10 12 11 -5 1
-11 1 -24 0 -29 -1 -5 4 -4 12 2 8 7 17 9 20 5 11 -10 127 -12 151 -3 21 9 21
9 -2 9 -14 1 -26 10 -32 24 -5 12 -9 16 -9 8 -1 -7 -7 -11 -15 -8 -8 3 -17 0
-19 -8 -6 -13 -80 -16 -93 -3 -3 4 12 5 33 4 27 -2 40 2 40 10 0 8 -6 10 -16
5 -14 -6 -36 -7 -43 -1 -8 5 -37 7 -42 2z m164 -38 c0 -2 -7 -4 -15 -4 -8 0
-15 4 -15 10 0 5 7 7 15 4 8 -4 15 -8 15 -10z"/>
<path d="M2893 5253 c-7 -2 -13 -9 -13 -15 0 -7 5 -7 13 1 8 6 18 7 22 3 5 -4
5 -1 1 6 -4 6 -8 12 -9 11 -1 0 -8 -3 -14 -6z"/>
<path d="M2925 5220 c3 -5 8 -10 11 -10 2 0 4 5 4 10 0 6 -5 10 -11 10 -5 0
-7 -4 -4 -10z"/>
<path d="M3400 5211 c0 -6 5 -11 11 -11 8 0 7 -5 -1 -15 -7 -9 -11 -17 -9 -20
3 -2 10 4 16 15 10 14 9 21 -2 30 -11 9 -15 9 -15 1z"/>
<path d="M2938 5192 c-72 -3 -93 -11 -68 -27 6 -4 29 -8 53 -11 23 -2 53 -6
67 -8 33 -4 52 4 43 18 -5 7 -1 4 9 -6 19 -21 33 -24 22 -5 -6 10 -4 10 7 0
16 -16 53 -17 43 -2 -4 8 -1 8 13 1 14 -8 25 -6 43 9 28 21 30 20 -64 25 -38
1 -74 4 -80 6 -6 2 -46 2 -88 0z"/>
<path d="M3544 5139 c-4 -8 -3 -9 4 -5 7 4 12 2 12 -4 0 -8 9 -10 24 -6 13 3
27 1 29 -4 3 -6 4 -5 3 2 -2 7 -11 13 -22 13 -10 0 -24 3 -31 8 -6 4 -15 2
-19 -4z"/>
<path d="M3517 5116 c-4 -9 -2 -16 3 -16 19 0 25 -3 36 -18 9 -13 12 -12 17 7
5 20 2 23 -25 25 -7 1 -16 5 -19 9 -3 5 -9 2 -12 -7z"/>
<path d="M3587 5096 c-4 -10 -1 -13 8 -9 8 3 12 9 9 14 -7 12 -11 11 -17 -5z"/>
<path d="M2333 4973 c1 -12 5 -19 9 -17 5 3 11 -2 14 -10 9 -23 23 -20 17 4
-3 11 -11 20 -18 20 -7 0 -15 6 -18 13 -3 6 -4 2 -4 -10z"/>
<path d="M2145 4730 c-3 -5 -1 -10 4 -10 6 0 11 5 11 10 0 6 -2 10 -4 10 -3 0
-8 -4 -11 -10z"/>
<path d="M2101 4710 c-1 -9 8 -23 19 -33 11 -9 20 -13 20 -7 0 5 -6 13 -14 17
-7 4 -16 15 -19 23 -5 13 -6 13 -6 0z"/>
<path d="M2070 4467 c-14 -6 -29 -17 -33 -24 -5 -8 -13 -10 -19 -7 -7 4 -8 2
-4 -5 5 -8 17 -5 39 11 18 13 34 21 37 20 2 -2 6 1 8 7 4 13 4 13 -28 -2z"/>
<path d="M2124 4398 c-14 -22 -13 -40 2 -34 8 3 14 1 14 -4 0 -6 -4 -10 -9
-10 -14 0 -14 -327 0 -335 6 -4 15 -2 19 5 13 21 7 383 -7 387 -6 2 -15 -2
-19 -9z"/>
<path d="M1987 4250 c6 -7 9 -19 6 -26 -3 -9 1 -14 12 -14 9 0 14 -4 10 -9 -3
-5 -1 -12 4 -15 5 -4 8 2 6 11 -2 10 -4 23 -4 28 -1 6 -11 16 -23 24 -16 9
-19 9 -11 1z"/>
<path d="M2105 4000 c3 -5 8 -10 11 -10 2 0 4 5 4 10 0 6 -5 10 -11 10 -5 0
-7 -4 -4 -10z"/>
<path d="M1993 3841 c0 -11 5 -18 9 -15 4 3 5 11 1 19 -7 21 -12 19 -10 -4z"/>
<path d="M3697 4477 c4 -7 7 -21 8 -31 0 -13 8 -20 22 -21 12 -1 20 2 17 7 -3
4 -13 8 -22 8 -14 0 -13 2 3 13 15 12 16 15 4 23 -22 13 -40 14 -32 1z"/>
<path d="M3676 4467 c3 -10 9 -15 12 -12 3 3 0 11 -7 18 -10 9 -11 8 -5 -6z"/>
<path d="M3708 4383 c7 -3 16 -2 19 1 4 3 -2 6 -13 5 -11 0 -14 -3 -6 -6z"/>
<path d="M3730 4079 c0 -5 -6 -7 -12 -3 -7 4 -10 4 -6 0 4 -5 2 -19 -3 -33
-11 -31 -2 -48 17 -32 11 9 12 15 3 26 -10 11 -8 12 7 7 15 -6 17 -4 7 6 -6 7
-9 19 -6 26 3 8 2 14 -1 14 -3 0 -6 -5 -6 -11z m0 -53 c0 -3 -4 -8 -10 -11 -5
-3 -10 -1 -10 4 0 6 5 11 10 11 6 0 10 -2 10 -4z"/>
<path d="M3720 3989 c-13 -7 -13 -9 0 -9 13 0 13 -2 1 -9 -13 -8 -25 -41 -16
-41 2 0 13 13 25 29 21 30 15 47 -10 30z"/>
<path d="M2245 3387 c-68 -32 -120 -93 -140 -162 -14 -46 -16 -98 -13 -309 l3
-253 37 -55 c47 -72 104 -101 205 -106 119 -7 203 45 247 150 12 28 15 92 17
304 1 257 1 271 -20 315 -12 26 -32 56 -44 67 -76 70 -204 91 -292 49z"/>
<path d="M1999 2668 c-5 -18 -6 -38 -1 -34 7 8 12 36 6 36 -2 0 -4 -1 -5 -2z"/>
<path d="M1876 2627 c3 -10 9 -15 12 -12 3 3 0 11 -7 18 -10 9 -11 8 -5 -6z"/>
<path d="M1860 2581 c0 -6 4 -13 10 -16 6 -3 7 1 4 9 -7 18 -14 21 -14 7z"/>
<path d="M2015 2551 c-3 -5 -2 -12 3 -15 5 -3 9 1 9 9 0 17 -3 19 -12 6z"/>
<path d="M2591 2506 c-9 -11 -9 -16 1 -22 7 -4 10 -4 6 1 -4 4 -3 14 3 22 6 7
9 13 6 13 -2 0 -10 -6 -16 -14z"/>
<path d="M2500 2486 c0 -2 7 -7 16 -10 8 -3 12 -2 9 4 -6 10 -25 14 -25 6z"/>
<path d="M2623 2439 c-2 -23 3 -25 10 -4 4 8 3 16 -1 19 -4 3 -9 -4 -9 -15z"/>
<path d="M2200 2419 c0 -6 -7 -8 -16 -5 -8 3 -12 2 -9 -3 9 -15 44 -9 38 6 -6
16 -13 17 -13 2z"/>
<path d="M2270 2406 c0 -2 8 -10 18 -17 15 -13 16 -12 3 4 -13 16 -21 21 -21
13z"/>
<path d="M2506 2402 c-3 -5 1 -9 9 -9 8 0 12 4 9 9 -3 4 -7 8 -9 8 -2 0 -6 -4
-9 -8z"/>
<path d="M2593 2378 c0 -13 1 -17 4 -10 3 6 10 9 16 5 7 -4 6 1 -2 10 -17 21
-17 21 -18 -5z"/>
<path d="M2206 2352 c-3 -5 1 -9 9 -9 8 0 12 4 9 9 -3 4 -7 8 -9 8 -2 0 -6 -4
-9 -8z"/>
<path d="M2294 2326 c1 -8 5 -18 8 -22 4 -3 5 1 4 10 -1 8 -5 18 -8 22 -4 3
-5 -1 -4 -10z"/>
<path d="M2436 2332 c-3 -5 1 -9 9 -9 8 0 12 4 9 9 -3 4 -7 8 -9 8 -2 0 -6 -4
-9 -8z"/>
<path d="M2232 2308 c-15 -15 -15 -28 0 -28 6 0 8 3 5 7 -4 3 -2 12 4 20 14
16 7 17 -9 1z"/>
<path d="M2348 2273 c7 -3 16 -2 19 1 4 3 -2 6 -13 5 -11 0 -14 -3 -6 -6z"/>
<path d="M690 2986 c0 -3 9 -10 19 -16 15 -7 22 -7 27 2 4 7 4 10 -1 6 -4 -4
-16 -3 -26 3 -11 5 -19 7 -19 5z"/>
<path d="M760 2976 c0 -2 8 -10 18 -17 15 -13 16 -12 3 4 -13 16 -21 21 -21
13z"/>
<path d="M615 2861 c-3 -5 -2 -12 3 -15 5 -3 9 1 9 9 0 17 -3 19 -12 6z"/>
<path d="M695 2811 c-3 -5 -2 -12 3 -15 5 -3 9 1 9 9 0 17 -3 19 -12 6z"/>
<path d="M616 2792 c-3 -5 1 -9 9 -9 8 0 12 4 9 9 -3 4 -7 8 -9 8 -2 0 -6 -4
-9 -8z"/>
<path d="M756 2765 c-3 -9 -11 -13 -17 -9 -8 5 -9 3 -4 -5 6 -10 11 -9 23 3 9
8 13 18 10 21 -3 3 -8 -1 -12 -10z"/>
<path d="M795 2750 c2 -27 10 -33 12 -10 1 11 -2 22 -6 24 -4 3 -7 -4 -6 -14z"/>
<path d="M630 2756 c0 -2 8 -10 18 -17 15 -13 16 -12 3 4 -13 16 -21 21 -21
13z"/>
<path d="M645 2710 c3 -5 8 -10 11 -10 2 0 4 5 4 10 0 6 -5 10 -11 10 -5 0 -7
-4 -4 -10z"/>
<path d="M794 2653 c1 -7 6 -16 11 -20 4 -5 5 -2 0 6 -6 10 -4 13 7 9 8 -4 15
-1 15 6 0 6 -8 12 -17 12 -10 0 -17 -6 -16 -13z"/>
<path d="M600 2649 c0 -5 5 -7 10 -4 6 3 10 8 10 11 0 2 -4 4 -10 4 -5 0 -10
-5 -10 -11z"/>
<path d="M689 2643 c-6 -7 -8 -13 -3 -13 5 0 3 -4 -4 -9 -11 -7 -11 -9 1 -14
10 -4 14 1 13 16 0 12 4 22 11 22 6 0 14 3 17 6 3 3 -1 6 -9 6 -8 0 -20 -6
-26 -14z"/>
<path d="M755 2639 c-4 -6 -5 -12 -2 -15 2 -3 7 2 10 11 7 17 1 20 -8 4z"/>
<path d="M635 2609 c-11 -16 -1 -19 13 -3 7 8 8 14 3 14 -5 0 -13 -5 -16 -11z"/>
<path d="M605 2590 c-3 -5 -1 -10 4 -10 6 0 11 5 11 10 0 6 -2 10 -4 10 -3 0
-8 -4 -11 -10z"/>
<path d="M654 2565 c1 -19 6 -38 11 -42 4 -5 5 -2 0 6 -6 10 -2 12 14 6 13 -4
21 -2 21 5 0 6 4 9 9 6 5 -3 12 1 15 9 4 13 2 13 -14 5 -15 -8 -22 -5 -38 15
l-19 24 1 -34z m31 -15 c3 -6 -1 -7 -9 -4 -18 7 -21 14 -7 14 6 0 13 -4 16
-10z"/>
<path d="M805 2570 c10 -11 20 -20 23 -20 3 0 -3 9 -13 20 -10 11 -20 20 -23
20 -3 0 3 -9 13 -20z"/>
<path d="M744 2558 c-4 -7 -8 -22 -9 -34 -1 -21 0 -22 16 -6 13 14 13 18 2 20
-11 3 -11 7 -2 18 6 8 9 14 6 14 -3 0 -9 -5 -13 -12z"/>
<path d="M806 2518 c3 -4 9 -8 15 -8 5 0 9 4 9 8 0 5 -7 9 -15 9 -8 0 -12 -4
-9 -9z"/>
<path d="M646 2507 c3 -10 9 -15 12 -12 3 3 0 11 -7 18 -10 9 -11 8 -5 -6z"/>
<path d="M764 2512 c4 -3 14 -7 22 -8 9 -1 13 0 10 4 -4 3 -14 7 -22 8 -9 1
-13 0 -10 -4z"/>
<path d="M672 2489 c2 -6 6 -9 8 -8 3 1 15 -3 27 -9 16 -9 24 -9 29 0 4 7 3 8
-4 4 -7 -4 -12 -2 -12 4 0 6 -4 9 -9 5 -5 -3 -12 -1 -16 5 -8 13 -28 13 -23
-1z"/>
<path d="M815 2490 c4 -7 -2 -9 -19 -4 -17 4 -26 2 -26 -6 0 -6 5 -8 12 -4 8
5 9 2 5 -9 -7 -20 5 -29 27 -21 18 7 22 54 5 54 -5 0 -7 -5 -4 -10z m0 -30
c-3 -5 -11 -10 -16 -10 -6 0 -7 5 -4 10 3 6 11 10 16 10 6 0 7 -4 4 -10z"/>
<path d="M800 2426 c0 -2 8 -10 18 -17 15 -13 16 -12 3 4 -13 16 -21 21 -21
13z"/>
<path d="M748 2383 c6 -3 10 -9 7 -13 -3 -5 -1 -11 4 -15 6 -3 14 2 20 12 7
15 5 18 -17 19 -15 1 -21 -1 -14 -3z"/>
<path d="M1160 2646 c0 -2 7 -7 16 -10 8 -3 12 -2 9 4 -6 10 -25 14 -25 6z"/>
<path d="M1161 2599 c8 -16 39 -17 39 -2 0 3 -7 2 -16 -1 -11 -4 -15 -2 -11 7
3 8 -1 14 -8 14 -10 0 -11 -5 -4 -18z"/>
<path d="M1326 2602 c5 -4 12 -11 15 -15 3 -5 9 -2 12 5 3 9 -3 14 -15 15 -11
1 -16 -1 -12 -5z"/>
<path d="M1296 2503 c-6 -14 -5 -15 5 -6 7 7 10 15 7 18 -3 3 -9 -2 -12 -12z"/>
<path d="M1400 2486 c0 -2 7 -7 16 -10 8 -3 12 -2 9 4 -6 10 -25 14 -25 6z"/>
<path d="M1240 2450 c0 -5 5 -10 11 -10 5 0 7 5 4 10 -3 6 -8 10 -11 10 -2 0
-4 -4 -4 -10z"/>
<path d="M1375 2450 c-3 -5 9 -16 27 -25 29 -14 30 -14 14 0 -11 8 -25 15 -30
15 -6 0 -4 5 4 10 9 6 10 10 3 10 -6 0 -14 -4 -18 -10z"/>
<path d="M1420 2455 c0 -2 6 -8 13 -14 10 -8 14 -7 14 2 0 8 -6 14 -14 14 -7
0 -13 -1 -13 -2z"/>
<path d="M1337 2423 c-3 -5 6 -9 20 -10 19 -1 22 1 12 8 -17 11 -26 11 -32 2z"/>
<path d="M1383 2403 c-7 -2 -13 -12 -12 -21 0 -11 2 -12 6 -4 2 6 8 10 12 8 4
-3 8 1 8 9 0 8 -1 15 -1 14 -1 0 -7 -3 -13 -6z"/>
<path d="M1435 2399 c-11 -16 -1 -19 13 -3 7 8 8 14 3 14 -5 0 -13 -5 -16 -11z"/>
<path d="M1507 2393 c3 -7 -2 -16 -11 -19 -9 -3 -16 -13 -16 -21 0 -8 -4 -11
-10 -8 -6 4 -7 -1 -3 -12 6 -16 5 -16 -11 -4 -15 12 -19 12 -32 -1 -14 -14
-11 -15 31 -14 26 0 42 2 36 4 -6 2 -11 8 -11 13 0 5 11 4 25 -1 16 -6 25 -6
25 0 0 6 -6 10 -14 10 -8 0 -18 5 -22 12 -4 7 -3 8 5 4 7 -5 10 -2 9 6 -2 8 4
12 15 10 9 -2 17 2 17 8 0 6 -5 8 -12 4 -7 -5 -9 -2 -6 8 4 8 1 15 -7 15 -7 0
-11 -6 -8 -14z"/>
<path d="M1441 2373 c-7 -8 -11 -16 -8 -19 2 -2 10 2 17 11 17 20 9 27 -9 8z"/>
<path d="M1540 2345 c0 -8 4 -15 10 -15 5 0 7 7 4 15 -4 8 -8 15 -10 15 -2 0
-4 -7 -4 -15z"/>
<path d="M1315 2339 c-4 -6 -4 -13 -1 -16 3 -4 6 -1 6 5 0 6 11 5 31 -5 20
-10 34 -12 41 -5 6 6 6 12 -1 16 -6 4 -11 2 -11 -4 0 -6 -11 -5 -29 5 -20 10
-32 12 -36 4z"/>
<path d="M3473 2597 c0 -8 6 -14 14 -14 9 0 10 4 2 14 -6 7 -12 13 -14 13 -1
0 -2 -6 -2 -13z"/>
<path d="M3520 2566 c7 -7 13 -7 20 0 6 6 3 10 -10 10 -13 0 -16 -4 -10 -10z"/>
<path d="M3464 2509 c-3 -6 -2 -15 4 -21 6 -6 12 -6 17 3 6 8 4 10 -5 4 -10
-6 -12 -4 -7 8 7 19 2 23 -9 6z"/>
<path d="M3594 2509 c-3 -6 -1 -16 5 -22 9 -9 10 -7 5 7 -6 15 -4 17 6 11 9
-5 11 -4 6 3 -9 15 -13 15 -22 1z"/>
<path d="M3544 2459 c-3 -6 -2 -15 3 -20 5 -5 9 -1 9 11 0 23 -2 24 -12 9z"/>
<path d="M3515 2451 c-3 -5 -2 -12 3 -15 5 -3 9 1 9 9 0 17 -3 19 -12 6z"/>
<path d="M3630 2446 c14 -18 13 -19 -5 -13 -18 7 -19 6 -3 -6 10 -8 16 -17 13
-20 -3 -4 -2 -5 2 -2 14 11 11 34 -5 47 -16 12 -16 11 -2 -6z"/>
<path d="M3461 2419 c-1 -9 7 -23 17 -30 15 -12 16 -12 6 1 -6 8 -14 22 -17
30 -5 13 -6 12 -6 -1z"/>
<path d="M3655 2392 c3 -3 0 -11 -7 -19 -15 -19 2 -36 22 -22 13 9 12 10 -2 5
-22 -7 -23 2 -3 24 13 15 13 17 0 17 -8 0 -13 -3 -10 -5z"/>
<path d="M5070 3116 c0 -2 7 -7 16 -10 8 -3 12 -2 9 4 -6 10 -25 14 -25 6z"/>
<path d="M5056 3091 c-3 -5 2 -15 12 -22 15 -12 16 -12 5 2 -7 9 -10 19 -6 22
3 4 4 7 0 7 -3 0 -8 -4 -11 -9z"/>
<path d="M4896 2818 c3 -5 10 -6 15 -3 13 9 11 12 -6 12 -8 0 -12 -4 -9 -9z"/>
<path d="M5356 2800 c5 -8 9 -18 9 -22 0 -3 3 -9 7 -13 3 -4 5 0 4 9 -1 9 -8
22 -16 29 -10 10 -11 9 -4 -3z"/>
<path d="M5524 2768 l-19 -23 25 20 c14 11 27 21 29 22 2 2 0 3 -6 3 -5 0 -18
-10 -29 -22z"/>
<path d="M5387 2754 c-3 -3 -3 -12 -1 -19 3 -7 1 -16 -5 -20 -6 -3 -11 -1 -11
5 0 6 -5 8 -11 5 -15 -10 -1 -20 30 -21 16 0 28 5 28 12 0 7 -5 10 -10 7 -6
-4 -8 0 -4 10 6 16 -5 31 -16 21z"/>
<path d="M5425 2751 c-3 -5 -2 -12 3 -15 5 -3 9 1 9 9 0 17 -3 19 -12 6z"/>
<path d="M5524 2742 c-9 -5 -8 -10 1 -19 11 -10 13 -9 12 7 -1 11 -1 20 -2 20
0 0 -5 -4 -11 -8z"/>
<path d="M4995 2729 c-4 -6 -5 -12 -2 -15 2 -3 7 2 10 11 7 17 1 20 -8 4z"/>
<path d="M4960 2719 c0 -5 5 -7 10 -4 6 3 10 8 10 11 0 2 -4 4 -10 4 -5 0 -10
-5 -10 -11z"/>
<path d="M5433 2700 c2 -8 -3 -21 -12 -28 -14 -11 -13 -12 4 -4 29 14 37 15
44 4 3 -5 15 2 25 17 20 26 20 26 0 9 -16 -14 -23 -15 -32 -6 -7 7 -12 8 -12
3 0 -6 -5 -3 -11 5 -9 13 -10 13 -6 0z"/>
<path d="M5515 2664 c-26 -22 -27 -24 -5 -13 14 7 32 12 40 11 10 -1 11 1 2 4
-6 3 -10 10 -6 15 8 14 1 10 -31 -17z"/>
<path d="M4866 2658 c3 -5 10 -6 15 -3 13 9 11 12 -6 12 -8 0 -12 -4 -9 -9z"/>
<path d="M5360 2656 c0 -4 6 -13 13 -20 14 -14 49 -17 41 -4 -4 5 -9 7 -12 4
-3 -3 -14 1 -24 11 -10 9 -18 13 -18 9z"/>
<path d="M5436 2648 c3 -5 10 -6 15 -3 13 9 11 12 -6 12 -8 0 -12 -4 -9 -9z"/>
<path d="M5530 2640 c-8 -5 -10 -10 -5 -10 6 0 3 -5 -5 -11 -12 -8 -12 -10 4
-7 11 2 18 7 17 12 -2 5 3 13 11 17 7 5 9 9 3 9 -5 0 -17 -5 -25 -10z"/>
<path d="M4840 2620 c-6 -12 -5 -17 5 -17 7 0 11 7 7 15 -3 10 -1 13 6 8 6 -3
13 -3 16 2 3 5 -2 9 -10 9 -8 0 -19 -8 -24 -17z"/>
<path d="M4879 2613 c-13 -16 -12 -17 4 -4 16 13 21 21 13 21 -2 0 -10 -8 -17
-17z"/>
<path d="M5366 2602 c-3 -5 1 -9 9 -9 8 0 12 4 9 9 -3 4 -7 8 -9 8 -2 0 -6 -4
-9 -8z"/>
<path d="M5437 2597 c2 -4 12 -6 21 -5 9 2 16 -2 15 -9 -2 -8 4 -10 14 -6 11
4 13 8 5 11 -7 2 -10 7 -8 11 3 4 -8 7 -24 6 -15 0 -26 -3 -23 -8z"/>
<path d="M5536 2586 c5 -13 4 -17 -4 -12 -7 4 -22 0 -34 -8 -16 -12 -18 -16
-7 -16 9 0 21 -10 27 -22 l10 -23 -1 23 c-1 12 -5 22 -10 22 -4 0 -5 5 -2 10
4 6 10 8 15 5 14 -9 23 16 11 28 -9 9 -10 7 -5 -7z"/>
<path d="M4853 2575 c0 -8 4 -12 9 -9 5 3 6 10 3 15 -9 13 -12 11 -12 -6z"/>
<path d="M4825 2571 c-3 -5 -2 -12 3 -15 5 -3 9 1 9 9 0 17 -3 19 -12 6z"/>
<path d="M4956 2565 c4 -8 10 -12 15 -9 11 6 2 24 -11 24 -5 0 -7 -7 -4 -15z"/>
<path d="M5440 2576 c0 -2 8 -10 18 -17 15 -13 16 -12 3 4 -13 16 -21 21 -21
13z"/>
<path d="M4875 2560 c-3 -5 -3 -15 1 -22 5 -8 1 -9 -12 -4 -15 6 -17 5 -6 -5
10 -11 16 -10 30 5 9 11 11 16 5 12 -7 -4 -13 -3 -13 3 0 5 6 12 13 14 9 4 9
6 0 6 -6 1 -15 -3 -18 -9z"/>
<path d="M5374 2554 c9 -8 20 -13 25 -10 5 4 12 0 14 -6 3 -7 6 -4 6 7 1 17 3
17 11 5 5 -8 10 -10 10 -4 0 18 -12 24 -31 14 -12 -7 -20 -7 -24 0 -3 5 -11
10 -16 10 -6 0 -3 -7 5 -16z"/>
<path d="M5367 2526 c10 -13 24 -21 32 -18 10 4 8 8 -7 13 -12 5 -22 13 -22
19 0 5 -5 10 -10 10 -6 0 -3 -11 7 -24z"/>
<path d="M5494 2513 c2 -10 -2 -21 -8 -26 -6 -4 -1 -6 11 -4 12 2 26 7 30 12
5 4 2 5 -4 1 -8 -4 -13 -1 -13 8 0 8 -4 17 -9 20 -5 4 -8 -2 -7 -11z"/>
<path d="M4824 2509 c-3 -6 -2 -15 3 -20 5 -5 9 -1 9 11 0 23 -2 24 -12 9z"/>
<path d="M4910 2510 c8 -5 20 -10 25 -10 6 0 3 5 -5 10 -8 5 -19 10 -25 10 -5
0 -3 -5 5 -10z"/>
<path d="M4959 2515 c-5 -20 -4 -32 5 -44 8 -10 8 -15 -1 -18 -13 -5 -6 -33 8
-33 4 0 5 8 2 17 -5 13 -2 15 12 10 15 -6 16 -5 5 8 -7 8 -9 15 -5 15 5 0 1 8
-8 18 -10 10 -14 22 -10 25 3 4 3 7 0 7 -4 0 -8 -2 -8 -5z"/>
<path d="M5000 2505 c-11 -13 -10 -14 4 -9 9 3 16 10 16 15 0 13 -6 11 -20 -6z"/>
<path d="M5356 2507 c3 -10 9 -15 12 -12 3 3 0 11 -7 18 -10 9 -11 8 -5 -6z"/>
<path d="M4900 2490 c0 -5 5 -10 11 -10 5 0 7 5 4 10 -3 6 -8 10 -11 10 -2 0
-4 -4 -4 -10z"/>
<path d="M5400 2490 c0 -5 5 -10 11 -10 5 0 7 5 4 10 -3 6 -8 10 -11 10 -2 0
-4 -4 -4 -10z"/>
<path d="M5440 2490 c-8 -5 -12 -12 -9 -15 4 -3 12 1 19 10 14 17 11 19 -10 5z"/>
<path d="M5365 2469 c-10 -15 1 -23 20 -15 9 3 13 10 10 16 -8 13 -22 13 -30
-1z"/>
<path d="M4820 2442 c0 -5 7 -9 15 -9 8 0 12 4 9 9 -3 4 -9 8 -15 8 -5 0 -9
-4 -9 -8z"/>
<path d="M5361 2434 c-1 -18 25 -35 43 -28 13 5 14 9 5 20 -6 8 -17 14 -23 14
-6 0 -4 -5 4 -10 13 -8 13 -10 -2 -10 -9 0 -19 6 -21 13 -4 7 -6 8 -6 1z"/>
<path d="M4860 2400 c11 -11 25 -20 32 -20 6 0 3 9 -7 20 -10 11 -24 20 -32
20 -9 0 -7 -6 7 -20z"/>
<path d="M4830 2390 c0 -6 7 -10 15 -10 8 0 15 2 15 4 0 2 -7 6 -15 10 -8 3
-15 1 -15 -4z"/>
<path d="M4995 2390 c-3 -5 1 -10 9 -10 9 0 16 5 16 10 0 6 -4 10 -9 10 -6 0
-13 -4 -16 -10z"/>
<path d="M4845 2360 c-3 -6 1 -7 9 -4 18 7 21 14 7 14 -6 0 -13 -4 -16 -10z"/>
<path d="M4445 2921 c-3 -5 -2 -12 3 -15 5 -3 9 1 9 9 0 17 -3 19 -12 6z"/>
<path d="M4160 2806 c0 -2 8 -10 18 -17 15 -13 16 -12 3 4 -13 16 -21 21 -21
13z"/>
</g>
</svg>
